<?xml version="1.0" standalone="no"?>
<!DOCTYPE svg PUBLIC "-//W3C//DTD SVG 1.1//EN" "http://www.w3.org/Graphics/SVG/1.1/DTD/svg11.dtd" >
<svg xmlns="http://www.w3.org/2000/svg" xmlns:xlink="http://www.w3.org/1999/xlink" version="1.1">
<metadata>
Created by FontForge 20201107 at Tue Jul 11 04:37:03 2023
 By 
virust (c) Penatic Studio 2023. All Rights Reserved
</metadata>
<defs>
<font id="VIRUSTRegular" horiz-adv-x="780" >
  <font-face 
    font-family="VIRUST"
    font-weight="400"
    font-stretch="normal"
    units-per-em="1000"
    panose-1="0 0 0 0 0 0 0 0 0 0"
    ascent="800"
    descent="-200"
    x-height="700"
    cap-height="700"
    bbox="-494 -235.563 1602 982"
    underline-thickness="0"
    underline-position="0"
    unicode-range="U+000A-F045"
  />
<missing-glyph horiz-adv-x="527" 
d="M50 700h427v-700h-427v700zM78 680l185 -309l186 309h-371zM251 350l-180 300v-601zM264 329l-185 -308h370zM276 350l181 -303v605z" />
    <glyph glyph-name="RS.liga" unicode="RS" horiz-adv-x="1267" 
d="M350 684h-51q-26 0 -44 -18t-18 -44v-280h113q37 0 65 25.5t40 63.5t12 82t-12 82t-40 63.5t-65 25.5zM27 16h9q25 0 43 18t18 44v544q0 26 -18 44t-43 18h-9v16h361q53 0 98.5 -23.5t72.5 -67.5q26 -44 26 -96t-26 -97q-41 -67 -135 -82q38 -1 74.5 -28.5t61.5 -62.5
t63 -85t70 -80q108 -104 238 -96q95 6 145 66q53 61 15 134q-8 15 -19 29q-21 26 -61.5 52.5t-82.5 46.5t-87.5 46t-80.5 51.5t-58 61.5t-23 77q0 43 25 76t65.5 50t84 25t89.5 8q50 0 99 -10.5t74 -19t51 -4.5t47 29h25q-3 -5 -23.5 -44t-29 -56t-22.5 -46.5t-22 -49.5
l-5 -14l-24 12l14 34q10 28 8 49t-17.5 37.5t-35 27.5t-45.5 18.5t-48 11t-42 4.5q-45 2 -79 -13.5t-49.5 -39.5t-11.5 -54.5t31 -55.5q23 -22 64.5 -46.5t82 -44t84.5 -46t76.5 -53t53.5 -65.5t20 -84q0 -45 -22 -83.5t-58.5 -64.5t-83 -47t-95.5 -29.5t-97.5 -11.5
t-88.5 6q-63 12 -115 39t-87 60.5t-66 72t-57.5 74t-54.5 64.5t-65 46.5t-80 17.5h-12v-248q0 -26 18 -44t44 -18h9v-16h-281v16z" />
    <glyph glyph-name="RU.liga" unicode="RU" horiz-adv-x="1303" 
d="M349 684h-51q-26 0 -44 -18t-18 -44v-280h113q37 0 65 25.5t40 63.5t12 82t-12 82t-40 63.5t-65 25.5zM26 16h9q25 0 43 18t18 44v544q0 26 -18 44t-43 18h-9v16h361q53 0 98.5 -23.5t72.5 -67.5q26 -44 26 -96t-26 -97q-41 -67 -135 -82q31 -1 60 -18.5t55.5 -47
t51 -60.5t55.5 -68t59 -62q66 -57 150.5 -74t167 4t155.5 71l10 -9q-81 -75 -193 -103.5t-209 -14.5q-57 9 -107 34.5t-86 59t-69 72t-63 75t-60.5 66.5t-69.5 48.5t-82 18.5h-12v-248q0 -26 18 -44t44 -18h9v-16h-281v16zM841 349q0 -86 37 -140.5t89.5 -63t105.5 8t90 72
t37 130.5v266q0 26 -18 44t-44 18h-9v16h157v-16h-9q-25 0 -43 -18t-18 -44v-264q0 -116 -63 -180t-165 -64q-62 0 -113.5 18t-90.5 54.5t-61 96t-22 137.5v202q0 26 -18 44t-44 18h-8v16h280v-16h-9q-25 0 -43 -18t-18 -44v-273z" />
    <glyph glyph-name="RO.liga" unicode="RO" horiz-adv-x="1368" 
d="M350 684h-51q-26 0 -44 -18t-18 -44v-280h113q37 0 65 25.5t40 63.5t12 82t-12 82t-40 63.5t-65 25.5zM1335 396.5q0 -86.5 -45 -160t-122 -116t-168.5 -42.5t-168.5 42.5t-122 116t-45 160t45 160t122 116t168.5 42.5t168.5 -42.5t122 -116t45 -160zM798 397
q0 -126 59 -215.5t142.5 -89.5t142.5 89.5t59 215.5t-59 215.5t-142.5 89.5t-142.5 -89.5t-59 -215.5zM27 16h9q25 0 43 18t18 44v544q0 26 -18 44t-43 18h-9v16h361q53 0 98.5 -23.5t72.5 -67.5q26 -44 26 -96t-26 -97q-41 -67 -135 -82q38 -1 80 -28.5t73 -61t76 -83
t77 -76.5q65 -58 150 -74.5t167 4t155 71.5l10 -9q-80 -76 -194 -103.5t-213 -12.5q-57 9 -108 33.5t-88.5 57.5t-72.5 70.5t-67 73.5t-64.5 65t-72.5 47t-83 18h-12v-248q0 -26 18 -44t44 -18h9v-16h-281v16z" />
    <glyph glyph-name="RE.liga" unicode="RE" horiz-adv-x="1235" 
d="M349 684h-51q-26 0 -44 -18t-18 -44v-280h113q37 0 65 25.5t40 63.5t12 82t-12 82t-40 63.5t-65 25.5zM675 164h9q26 0 44 18t18 43v397q0 26 -18 44t-44 18h-9v16h238h208q20 0 25 -20l26 -109h-15l-26 44q-25 44 -46 56.5t-65 12.5h-87q-25 0 -43 -18t-18 -44v-220h137
q25 0 37 16.5t7 39.5l-8 37h15l54 -182h-16l-17 32q-21 41 -66 41h-143v-161q0 -25 18 -43t43 -18h57h57q44 0 65.5 12t46.5 57l25 44h15l-26 -109q-4 -21 -25 -21h-473v17zM26 0v16h9q25 0 43 18t18 44v544q0 26 -18 44t-43 18h-9v16h361q53 0 98.5 -23.5t72.5 -67.5
q26 -44 26 -96t-26 -97q-41 -67 -135 -82q31 -1 60 -18.5t55.5 -47t51 -60.5t55.5 -68t59 -62q66 -57 150.5 -74t167 4t155.5 71l10 -9q-81 -75 -193 -103.5t-209 -14.5q-57 9 -107 34.5t-86 59t-69 72t-63 75t-60.5 66.5t-69.5 48.5t-82 18.5h-12v-248q0 -26 18 -44t44 -18
h9v-16h-281z" />
    <glyph glyph-name="KU.liga" unicode="KU" horiz-adv-x="1276" 
d="M1171 356v266q0 26 -18 44t-43 18h-9v16h157v-16h-9q-26 0 -44 -18t-18 -44v-264q0 -116 -63 -180t-165 -64q-62 0 -113 18t-90.5 54.5t-61.5 96t-22 137.5v202q0 26 -18 44t-43 18h-9v16h281v-16h-9q-26 0 -44 -18t-18 -44v-273q0 -86 37 -140.5t90 -63t105.5 8t89.5 72
t37 130.5zM492 651l-240 -316q53 13 107 7.5t104 -34.5q34 -20 72 -59t80.5 -87.5t73.5 -76.5q66 -58 150.5 -74.5t167 4t155.5 71.5l10 -9q-87 -76 -198 -103.5t-209 -12.5q-94 14 -164 63t-138 127q-10 12 -34 41t-33 39t-30 29t-37 26t-40 14t-53 7v-229q0 -26 18 -44
t44 -18h9v-16h-281v16h9q25 0 43 18t18 44v544q0 26 -18 44t-43 18h-9v16h281v-16h-9q-26 0 -44 -18t-18 -44v-278l241 317q6 7 2 15t-13 8h-26v16h125v-16h-13q-35 0 -60 -33z" />
    <glyph glyph-name="KS.liga" unicode="KS" horiz-adv-x="1184" 
d="M493 651l-242 -319h88q37 0 69 -17t58 -46t48 -60t50.5 -68.5t53.5 -61.5q114 -109 242 -101q91 7 138 67q49 63 11 136q-8 15 -20 30q-21 26 -61 52.5t-82.5 46.5t-88 46t-80.5 51.5t-58 61.5t-23 77q0 43 25 76t66 50t84 25t89 8q50 0 99 -10.5t74.5 -19t51 -4.5
t46.5 29h25q-3 -5 -23.5 -44t-29 -56t-22.5 -46.5t-21 -49.5l-5 -14l-24 12l14 34q9 28 7 49t-17.5 37.5t-35 27.5t-45 18.5t-47.5 11t-43 4.5q-45 2 -79 -13.5t-49 -39.5t-11 -54.5t30 -55.5q23 -22 64.5 -46.5t82 -44t84.5 -46t76.5 -53t53.5 -65.5t21 -84
q-1 -45 -23 -83.5t-58 -64.5t-82.5 -47t-96 -29.5t-98 -11.5t-88.5 6q-55 11 -102 33t-80.5 50.5t-62 60.5t-53 65t-47.5 62t-51 53t-58 36v-234q0 -26 18 -44t44 -18h9v-16h-281v16h9q25 0 43 18t18 44v544q0 26 -18 44t-43 18h-9v16h281v-16h-9q-26 0 -44 -18t-18 -44
v-278l241 317q6 7 2 15t-13 8h-26v16h125v-16h-13q-35 0 -60 -33z" />
    <glyph glyph-name="KO.liga" unicode="KO" horiz-adv-x="1306" 
d="M1271 396.5q0 -86.5 -45 -160t-122 -116t-168.5 -42.5t-168.5 42.5t-122 116t-45 160t45 160t122 116t168.5 42.5t168.5 -42.5t122 -116t45 -160zM734 397q0 -126 59 -215.5t142.5 -89.5t142.5 89.5t59 215.5t-59 215.5t-142.5 89.5t-142.5 -89.5t-59 -215.5zM27 16h9
q25 0 43 18t18 44v544q0 26 -18 44t-43 18h-9v16h281v-16h-9q-26 0 -44 -18t-18 -44v-278l241 317q6 7 2 15t-13 8h-26v16h125v-16h-13q-35 0 -60 -33l-240 -316q53 13 107 7.5t104 -34.5q34 -20 72 -59t80.5 -87.5t73.5 -76.5q66 -58 150.5 -74.5t167 4t155.5 71.5l10 -9
q-80 -75 -196.5 -105t-212.5 -15q-50 8 -94 26.5t-81.5 47.5t-64 55.5t-60.5 64.5q-10 12 -34 41t-33 39t-30 29t-37 26t-40 14t-53 7v-229q0 -26 18 -44t44 -18h9v-16h-281v16z" />
    <glyph glyph-name="KE.liga" unicode="KE" horiz-adv-x="1207" 
d="M644 164h9q25 0 43 18t18 43v397q0 26 -18 44t-43 18h-9v16h237.5h207.5q21 0 26 -20l25 -109h-15l-25 44q-25 44 -46.5 56.5t-65.5 12.5h-86q-25 0 -43.5 -18t-18.5 -44v-220h138q25 0 36.5 16.5t6.5 39.5l-8 37h16l53 -182h-16l-16 32q-21 41 -66 41h-144v-161
q0 -25 18.5 -43t43.5 -18h57h57q44 0 65 12t47 57l25 44h15l-26 -109q-5 -21 -25 -21h-473v17zM26 16h9q25 0 43 18t18 44v544q0 26 -18 44t-43 18h-9v16h281v-16h-9q-26 0 -44 -18t-18 -44v-278l241 317q6 7 2 15t-13 8h-26v16h125v-16h-13q-35 0 -60 -33l-240 -316
q53 13 107 7.5t104 -34.5q34 -20 72 -59t80.5 -87.5t73.5 -76.5q66 -58 150.5 -74.5t167 4t155.5 71.5l10 -9q-83 -76 -197.5 -104.5t-211.5 -13.5q-50 8 -94 26t-81.5 46.5t-64.5 55t-60 64.5q-10 12 -34 41t-33 39t-30 29t-37 26t-40 14t-53 7v-229q0 -26 18 -44t44 -18h9
v-16h-281v16z" />
    <glyph glyph-name="ZS.liga" unicode="ZS" horiz-adv-x="1172" 
d="M1037 511l-5 -13l-23 11l13 33q9 27 7.5 47.5t-16.5 36t-34 26.5t-43.5 18t-46 10.5t-41.5 4.5q-42 2 -75 -13.5t-48 -39.5t-11 -53.5t29 -54.5q27 -25 76.5 -49t97 -44t92.5 -44.5t73 -61t29 -84.5q1 -45 -21 -80.5t-58 -56.5t-77.5 -31.5t-84.5 -10.5q-28 0 -59.5 3
t-70.5 11t-67 25.5t-35 41.5l-35 128h28l17 -33q37 -74 86.5 -113t125.5 -41q42 -1 74 9.5t48.5 29t22 42t-1.5 48.5t-24 46q-24 30 -74.5 56.5t-102 47t-100.5 45t-80 61t-31 83.5q0 42 23.5 73.5t63 48t81.5 24t86 7.5q48 0 95 -10t71.5 -18.5t49.5 -4.5t45 28h23
q-2 -5 -22 -42.5t-28 -54t-21.5 -44.5t-20.5 -48zM115 700h227.5h227.5v-16h-5q-47 0 -70 -49l-254 -520q-36 -74 -79 -99q96 25 181.5 32t154 -1t127 -19.5t131 -24.5t135.5 -15q73 -3 126 16.5t115 76.5l9 -8q-78 -94 -144.5 -130t-135.5 -32q-79 5 -178.5 23.5t-174.5 36
t-171.5 28t-181.5 1.5h-146v16h6q46 0 70 49l254 520q35 74 79 99h-202q-45 0 -67 -12t-44 -57l-23 -44h-15l23 109q2 9 9 14.5t16 5.5z" />
    <glyph glyph-name="ZU.liga" unicode="ZU" horiz-adv-x="1266" 
d="M1164 356v266q0 26 -18 44t-44 18h-9v16h157v-16h-9q-25 0 -43 -18t-18 -44v-264q0 -116 -63 -180t-165 -64q-62 0 -113.5 18t-90.5 54.5t-61 96t-22 137.5v202q0 26 -18 44t-44 18h-9v16h281v-16h-9q-25 0 -43 -18t-18 -44v-273q0 -86 37 -140.5t89.5 -63t105.5 8t90 72
t37 130.5zM115 700h227.5h227.5v-16h-5q-47 0 -70 -49l-254 -520q-36 -74 -79 -99q96 25 181.5 32t154 -1t127 -19.5t131 -24.5t135.5 -15q73 -3 126 16.5t115 76.5l9 -8q-78 -94 -144.5 -130t-135.5 -32q-79 5 -178.5 23.5t-174.5 36t-171.5 28t-181.5 1.5h-146v16h6
q46 0 70 49l254 520q35 74 79 99h-202q-45 0 -67 -12t-44 -57l-23 -44h-15l23 109q2 9 9 14.5t16 5.5z" />
    <glyph glyph-name="ZO.liga" unicode="ZO" horiz-adv-x="1255" 
d="M1220 396.5q0 -86.5 -45 -160t-122.5 -116t-168.5 -42.5t-168.5 42.5t-122.5 116t-45 160t45 160t122.5 116t168.5 42.5t168.5 -42.5t122.5 -116t45 -160zM682 397q0 -126 59.5 -215.5t143 -89.5t142.5 89.5t59 215.5t-59 215.5t-142.5 89.5t-143 -89.5t-59.5 -215.5z
M115 700h227.5h227.5v-16h-5q-47 0 -70 -49l-254 -520q-36 -74 -79 -99q96 25 181.5 32t154 -1t127 -19.5t131 -24.5t135.5 -15q73 -3 126 16.5t115 76.5l9 -8q-78 -94 -144.5 -130t-135.5 -32q-79 5 -178.5 23.5t-174.5 36t-171.5 28t-181.5 1.5h-146v16h6q46 0 70 49
l254 520q35 74 79 99h-202q-45 0 -67 -12t-44 -57l-23 -44h-15l23 109q2 9 9 14.5t16 5.5z" />
    <glyph glyph-name="ZE.liga" unicode="ZE" horiz-adv-x="1173" 
d="M608 164h9q25 0 43 18t18 43v397q0 26 -18 44t-43 18h-9v16h238h208q20 0 25 -20l25 -109h-15l-25 44q-25 44 -46.5 56.5t-64.5 12.5h-87q-25 0 -43 -18t-18 -44v-220h137q25 0 36.5 16.5t7.5 39.5l-9 37h16l54 -182h-16l-17 32q-21 41 -66 41h-143v-161q0 -25 18 -43
t43 -18h57h57q44 0 65 12t47 57l25 44h15l-26 -109q-5 -21 -25 -21h-473v17zM115 700h227.5h227.5v-16h-5q-47 0 -70 -49l-254 -520q-36 -74 -79 -99q96 25 181.5 32t154 -1t127 -19.5t131 -24.5t135.5 -15q73 -3 126 16.5t115 76.5l9 -8q-78 -94 -144.5 -130t-135.5 -32
q-79 5 -178.5 23.5t-174.5 36t-171.5 28t-181.5 1.5h-146v16h6q46 0 70 49l254 520q35 74 79 99h-202q-45 0 -67 -12t-44 -57l-23 -44h-15l23 109q2 9 9 14.5t16 5.5z" />
    <glyph glyph-name="LS.liga" unicode="LS" horiz-adv-x="992" 
d="M27 16h9q25 0 43 18t18 44v544q0 26 -18 44t-43 18h-9v16h281v-16h-9q-26 0 -44 -18t-18 -44v-544q0 -26 18 -44t44 -18q91 0 180.5 -6t140.5 -12.5t103.5 -9t87.5 4t74 28t82 60.5l9 -8q-54 -65 -103.5 -103t-94 -49.5t-86.5 -9t-90.5 17.5t-94.5 30.5t-110 28
t-127 12.5h-121.5h-121.5v16zM925 700q-2 -5 -21.5 -42t-28 -54t-22 -45t-20.5 -48l-5 -13l-23 11l13 33q9 27 7.5 47.5t-16.5 36t-34 26.5t-43.5 18t-46 10.5t-41.5 4.5q-42 2 -75 -13.5t-48 -39.5t-11 -53.5t30 -54.5t75.5 -49t97 -44t92.5 -44.5t73 -61t29 -84.5
q1 -45 -21 -80.5t-57.5 -56.5t-77.5 -31.5t-85 -10.5q-28 0 -59.5 3t-70.5 11t-67 25.5t-35 41.5l-34 128h27l17 -33q37 -74 86.5 -113t125.5 -41q42 -1 74 9.5t48.5 29t22 42t-1.5 48.5t-24 46q-24 30 -74.5 56.5t-102 47t-100.5 45t-80 61t-31 83.5q0 42 23.5 73.5t63 48
t81.5 24t86 7.5q48 0 95 -10t71.5 -18.5t49.5 -4.5t45 28h23z" />
    <glyph glyph-name="LU.liga" unicode="LU" horiz-adv-x="1044" 
d="M936 356v266q0 26 -18 44t-43 18h-9v16h157v-16h-9q-26 0 -44 -18t-18 -44v-264q0 -116 -63 -180t-165 -64q-62 0 -113.5 18t-90.5 54.5t-61 96t-22 137.5v202q0 26 -18 44t-43 18h-9v16h280v-16h-8q-26 0 -44 -18t-18 -44v-273q0 -86 37 -140.5t90 -63t105.5 8t89.5 72
t37 130.5zM26 16h9q25 0 43 18t18 44v544q0 26 -18 44t-43 18h-9v16h281v-16h-9q-26 0 -44 -18t-18 -44v-544q0 -26 18 -44t44 -18q91 0 180.5 -6t140.5 -12.5t103.5 -9t87.5 4t74 28t82 60.5l9 -8q-54 -65 -103.5 -103t-94 -49.5t-86.5 -9t-90.5 17.5t-94.5 30.5t-110 28
t-127 12.5h-121.5h-121.5v16z" />
    <glyph glyph-name="LO.liga" unicode="LO" horiz-adv-x="1090" 
d="M1055 396.5q0 -86.5 -45 -160t-122.5 -116t-168.5 -42.5t-168.5 42.5t-122.5 116t-45 160t45 160t122.5 116t168.5 42.5t168.5 -42.5t122.5 -116t45 -160zM27 16h9q25 0 43 18t18 44v544q0 26 -18 44t-43 18h-9v16h281v-16h-9q-26 0 -44 -18t-18 -44v-544q0 -26 18 -44
t44 -18q91 0 180.5 -6t140.5 -12.5t103.5 -9t87.5 4t74 28t82 60.5l9 -8q-54 -65 -103.5 -103t-94 -49.5t-86.5 -9t-90.5 17.5t-94.5 30.5t-110 28t-127 12.5h-121.5h-121.5v16zM517 397q0 -126 59.5 -215.5t143 -89.5t142.5 89.5t59 215.5t-59 215.5t-142.5 89.5
t-143 -89.5t-59.5 -215.5z" />
    <glyph glyph-name="LE.liga" unicode="LE" horiz-adv-x="985" 
d="M369 147v17h9q25 0 43 18t18 43v397q0 26 -18 44t-43 18h-9v16h238h208q20 0 25 -20l25 -109h-15l-25 44q-25 44 -46.5 56.5t-64.5 12.5h-87q-25 0 -43 -18t-18 -44v-220h137q25 0 37 16.5t7 39.5l-8 37h15l54 -182h-16l-17 32q-21 41 -66 41h-143v-161q0 -25 18 -43
t43 -18h57h57q44 0 65.5 12t46.5 57l25 44h15l-26 -109q-5 -21 -25 -21h-473zM26 16h9q25 0 43 18t18 44v544q0 26 -18 44t-43 18h-9v16h281v-16h-9q-26 0 -44 -18t-18 -44v-544q0 -26 18 -44t44 -18q91 0 180.5 -6t140.5 -12.5t103.5 -9t87.5 4t74 28t82 60.5l9 -8
q-54 -65 -103.5 -103t-94 -49.5t-86.5 -9t-90.5 17.5t-94.5 30.5t-110 28t-127 12.5h-121.5h-121.5v16z" />
    <glyph glyph-name="SY.liga" unicode="SY" horiz-adv-x="1006" 
d="M202 521q23 -22 64.5 -46.5t82 -44t84.5 -46t76.5 -53t53.5 -65.5t21 -84q-1 -47 -24 -84t-59.5 -59t-79.5 -33t-87 -11q-29 0 -66.5 4t-82 13.5t-77.5 28.5t-38 45l-28 133h28l18 -34q82 -162 235 -167q54 -2 90 17.5t47 49t5 63.5t-29 63q-21 26 -61 52.5t-82.5 46.5
t-88 46t-80.5 51.5t-58 61.5t-23 77q0 43 31.5 77t80 52.5t98.5 27.5t96 9q44 1 91 -5.5t102 -23t102.5 -43t90.5 -70.5t68 -100l36 -78q30 68 53 118q21 44 23.5 77t-6 47.5t-18.5 32.5t-10 33h117l-151 -325v-297q0 -26 18 -44t43 -18h9v-16h-280v16h8q26 0 44 18t18 44
v314q-124 283 -354 294q-50 3 -93 -11t-66.5 -37.5t-23 -55t31.5 -61.5z" />
    <glyph glyph-name="SV.liga" unicode="SV" horiz-adv-x="1126" 
d="M759 487l154 -410l105 353q15 47 13 92.5t-10.5 74t-17.5 57.5t-9 43h117q-30 -103 -90 -310.5t-90 -311.5q-7 -23 13.5 -42t47.5 -19h9v-17h-125q-70 0 -104 89l-145 387q-36 97 -106.5 156t-167.5 64q-50 2 -93 -13t-66.5 -39.5t-23 -57t31.5 -62.5q23 -22 64.5 -46.5
t82 -44t84.5 -46t76.5 -53t53.5 -65.5t21 -84q-1 -47 -24 -84t-59.5 -59t-79.5 -33t-87 -11q-29 0 -66.5 4t-82 13.5t-77.5 28.5t-38 45l-28 133h28l18 -34q82 -162 235 -167q54 -2 90 17.5t47 49t5 63.5t-29 63q-21 26 -61 52.5t-82.5 46.5t-88 46t-80.5 51.5t-58 61.5
t-23 77q0 43 31.5 77.5t80 53t98.5 28.5t96 10q41 0 81 -4.5t92.5 -19t95 -38t81.5 -66.5t60 -100z" />
    <glyph glyph-name="TF.liga" unicode="TF" horiz-adv-x="1072" 
d="M536 16h9q25 0 43.5 18t18.5 44v431q0 25 -18.5 43.5t-43.5 18.5h-9v16h281v-16h-9q-25 0 -43 -18.5t-18 -43.5v-167h165q24 0 36 17t7 39l-8 37h15l54 -182h-16l-17 32q-21 41 -66 41h-170v-248q0 -26 18 -44t43 -18h9v-16h-281v16zM192 0v16h9q26 0 44 18t18 44v544
q0 26 -18 44t-44 18h-44q-45 0 -67 -12t-45 -57l-22 -44h-15l23 109q2 9 9 14.5t16 5.5h943q9 0 16 -5.5t9 -14.5l23 -109h-16l-22 44q-22 45 -44 57t-67 12h-434q-25 0 -43 -18t-18 -44v-544q0 -26 18 -44t43 -18h9v-16h-281z" />
    <glyph glyph-name="TE.liga" unicode="TE" horiz-adv-x="1135" 
d="M536 16h9q25 0 43.5 18t18.5 44v431q0 25 -18.5 43.5t-43.5 18.5h-9v16h281v-16h-9q-25 0 -43 -18.5t-18 -43.5v-167h165q24 0 36 17t7 39l-8 37h15l54 -182h-16l-17 32q-21 41 -66 41h-170v-248q0 -26 18 -44t43 -18h157q44 0 65.5 12.5t46.5 56.5l25 44h15l-26 -109
q-4 -20 -25 -20h-530v16zM192 16h9q26 0 44 18t18 44v544q0 26 -18 44t-44 18h-44q-45 0 -67 -12t-45 -57l-22 -44h-15l23 109q2 9 9 14.5t16 5.5h943q9 0 16 -5.5t9 -14.5l23 -109h-16l-22 44q-22 45 -44 57t-67 12h-434q-25 0 -43 -18t-18 -44v-544q0 -26 18 -44t43 -18h9
v-16h-281v16z" />
    <glyph glyph-name="TH.liga" unicode="TH" horiz-adv-x="1315" 
d="M527 0v16h9q26 0 44 18t18 44v431q0 25 -18 43.5t-44 18.5h-9v16h281v-16h-9q-25 0 -43 -18.5t-18 -43.5v-167h340v280q0 26 -18 44t-43 18h-9v16h281v-16h-9q-25 0 -43 -18t-18 -44v-544q0 -26 18 -44t43 -18h9v-16h-281v16h9q25 0 43 18t18 44v248h-340v-248
q0 -26 18 -44t43 -18h9v-16h-281zM192 0v16h9q26 0 44 18t18 44v544q0 26 -18 44t-44 18h-44q-45 0 -67 -12t-45 -57l-22 -44h-15l23 109q2 9 9 14.5t16 5.5h811q9 0 16.5 -5.5t8.5 -14.5l23 -109h-15l-22 44q-23 45 -45 57t-67 12h-302q-25 0 -43 -18t-18 -44v-544
q0 -26 18 -44t43 -18h9v-16h-281z" />
    <glyph glyph-name="CH.liga" unicode="CH" horiz-adv-x="1074" 
d="M393 684q-93 0 -153 -85t-60 -242q0 -156 62.5 -243.5t155.5 -87.5q74 0 132.5 36.5t95.5 100.5l13 -7q-36 -71 -101.5 -113.5t-144.5 -42.5q-74 0 -138 22.5t-112.5 66t-76 112.5t-27.5 156t27.5 154t76.5 107.5t112 61t138 20.5q96 0 171 -33q10 -4 18.5 2t8.5 16v15
h14v-208h-14q-23 93 -75.5 142.5t-122.5 49.5zM258 159v16h8q26 0 44 18t18 44v205q0 25 -18 43t-44 18h-8v16h280v-16h-9q-25 0 -43 -18t-18 -43v-100h369v280q0 26 -18 44t-44 18h-8v16h280v-16h-9q-25 0 -43 -18t-18 -44v-544q0 -26 18 -44t43 -18h9v-16h-280v16h8
q26 0 44 18t18 44v248h-369v-89q0 -26 18 -44t43 -18h9v-16h-280z" />
    <glyph glyph-name="TT.liga" unicode="TT" horiz-adv-x="1021" 
d="M192 16h9q26 0 44 18t18 44v544q0 26 -18 44t-44 18h-44q-45 0 -67 -12t-45 -57l-22 -44h-15l23 109q2 9 9 14.5t16 5.5h554q9 0 16 -5.5t9 -14.5l22 -109h-15l-22 44q-22 45 -44 57t-67 12h-45q-25 0 -43 -18t-18 -44v-84h3h554q9 0 16 -5.5t9 -14.5l22 -109h-15l-22 44
q-22 45 -44 57t-67 12h-45q-25 0 -43 -18t-18 -43v-383q0 -26 18 -44t43 -18h9v-16h-281v16h9q26 0 44 18t18 44v383q0 25 -18 43t-44 18h-44q-42 0 -63 -9.5t-41 -45.5v-389q0 -26 18 -44t43 -18h9v-16h-281v16z" />
    <glyph glyph-name="SS.liga" unicode="SS" horiz-adv-x="1082" 
d="M560 98q-30 -51 -93 -77t-133 -26q-29 0 -66.5 4t-82 13.5t-77.5 28.5t-38 45l-28 133h28l18 -34q82 -162 235 -167q54 -2 90 17.5t47 49t5 63.5t-29 63q-21 26 -61 52.5t-82.5 46.5t-88 46t-80.5 51.5t-58 61.5t-23 77q0 43 25 76t66 50t84 25t89 8q36 0 78.5 -9.5
t71 -19t64 -14t57.5 6.5q72 36 180 36q50 0 99 -10.5t74 -19t51 -4.5t47 29h25q-3 -5 -23.5 -44t-29 -56t-22.5 -46.5t-21 -49.5l-6 -14l-23 12l14 34q9 28 7 49t-17.5 37.5t-35 27.5t-45 18.5t-47.5 11t-43 4.5q-45 2 -79 -13.5t-49 -39.5t-11 -54.5t30 -55.5
q23 -22 64.5 -46.5t82 -44t84.5 -46t76.5 -53t53.5 -65.5t21 -84q-1 -47 -24 -84t-59.5 -59t-79.5 -33t-87 -11q-27 0 -49.5 3t-55 12t-63.5 31.5t-57 56.5zM532 447q-16 20 -33 54t-31 63t-33.5 57t-50.5 45t-73 18q-45 2 -79 -14t-49 -40t-11 -54t30 -55q26 -24 74.5 -52
t93.5 -49.5t94 -54t76 -65.5q19 -23 38 -62.5t34 -74.5t35.5 -68.5t52.5 -54.5t74 -22q54 -2 90 17.5t47 49t5 63.5t-29 63q-24 30 -74.5 61t-99 53.5t-101 55.5t-80.5 66z" />
    <glyph glyph-name="OO.liga" unicode="OO" horiz-adv-x="1145" 
d="M744 350q0 -84 -34.5 -157.5t-94.5 -124.5q69 -68 140 -68q58 0 107 47t77.5 127.5t28.5 175.5t-28.5 175.5t-77.5 127.5t-107 47q-71 0 -140 -68q60 -51 94.5 -124.5t34.5 -157.5zM500 350q0 -128 72 -232q73 104 73 232t-73 232q-72 -104 -72 -232zM390 715
q98 0 182 -52q84 52 183 52q96 0 177.5 -49t129 -133t47.5 -183t-47.5 -183t-129 -133t-177.5 -49q-99 0 -183 52q-84 -52 -182 -52q-96 0 -177.5 49t-129 133t-47.5 183t47.5 183t129 133t177.5 49zM530 632q-69 68 -140 68q-58 0 -107 -47t-77.5 -127.5t-28.5 -175.5
t28.5 -175.5t77.5 -127.5t107 -47q71 0 140 68q-60 51 -94.5 124.5t-34.5 157.5t34.5 157.5t94.5 124.5z" />
    <glyph glyph-name="QE.liga" unicode="QE" horiz-adv-x="1370" 
d="M619 72q-99 -87 -229 -87q-96 0 -177.5 49t-129 133t-47.5 183t47.5 183t129 133t177.5 49t177.5 -49t129 -133t47.5 -183q0 -125 -74 -224q60 -7 118.5 -27.5t97.5 -40.5t96 -37.5t118 -19.5q73 -3 126 16.5t114 76.5l9 -8q-77 -94 -143.5 -130t-135.5 -32
q-62 4 -124 22t-106 39t-106 46.5t-115 40.5zM531 89q-63 7 -119.5 -4.5t-120.5 -44.5q47 -40 99 -40q81 0 141 89zM177 350q0 -94 28.5 -173.5t75.5 -126.5q127 68 274 79q48 97 48 221q0 95 -28.5 175.5t-77.5 127.5t-107 47t-107 -47t-77.5 -127.5t-28.5 -175.5zM784 164
h8q26 0 44 18t18 43v397q0 26 -18 44t-44 18h-8v16h237h208q21 0 25 -20l26 -109h-15l-25 44q-25 44 -46.5 56.5t-65.5 12.5h-86q-26 0 -44 -18t-18 -44v-220h138q24 0 36 16.5t7 39.5l-8 37h16l53 -182h-16l-16 32q-21 41 -67 41h-143v-161q0 -25 18 -43t44 -18h57h57
q43 0 64.5 12t46.5 57l25 44h15l-25 -109q-5 -20 -25 -20q-253 -1 -473 -1v17z" />
    <glyph glyph-name="QS.liga" unicode="QS" horiz-adv-x="1398" 
d="M619 72q-99 -87 -229 -87q-96 0 -177.5 49t-129 133t-47.5 183t47.5 183t129 133t177.5 49t177.5 -49t129 -133t47.5 -183q0 -125 -74 -224q60 -7 121.5 -29.5t103.5 -45t102 -42t121 -21.5q73 -3 126 16.5t114 76.5l9 -8q-77 -94 -143.5 -130t-135.5 -32
q-62 4 -126.5 24t-112.5 43.5t-112.5 51t-117.5 42.5zM531 89q-63 7 -119.5 -4.5t-120.5 -44.5q47 -40 99 -40q81 0 141 89zM1355 700q-2 -5 -22 -42t-28 -54t-21.5 -45t-20.5 -48l-5 -13l-23 11l13 33q9 27 7.5 47.5t-16.5 36t-34 26.5t-43.5 18t-46 10.5t-41.5 4.5
q-43 2 -75.5 -13.5t-47.5 -39.5t-11 -53.5t29 -54.5q27 -25 76.5 -49t97 -44t92.5 -44.5t73 -61t29 -84.5q1 -45 -21 -80.5t-58 -56.5t-77.5 -31.5t-84.5 -10.5q-28 0 -59.5 3t-70.5 11t-67 25.5t-35 41.5l-35 128h28l16 -33q38 -74 87.5 -113t125.5 -41q42 -1 74 9.5
t48.5 29t22 42t-1.5 48.5t-24 46q-24 30 -74.5 56.5t-102 47t-100.5 45t-80.5 61t-31.5 83.5q0 42 24 73.5t63.5 48t81 24t85.5 7.5q49 0 96 -10t71.5 -18.5t49 -4.5t45.5 28h23zM177 350q0 -94 28.5 -173.5t75.5 -126.5q127 68 274 79q48 97 48 221q0 95 -28.5 175.5
t-77.5 127.5t-107 47t-107 -47t-77.5 -127.5t-28.5 -175.5z" />
    <glyph glyph-name="QU.liga" unicode="QU" horiz-adv-x="1462" 
d="M619 72q-99 -87 -229 -87q-96 0 -177.5 49t-129 133t-47.5 183t47.5 183t129 133t177.5 49t177.5 -49t129 -133t47.5 -183q0 -125 -74 -224q60 -7 126 -29.5t114 -45t113 -42t126 -21.5q73 -3 126 16.5t114 76.5l9 -8q-77 -94 -143.5 -130t-135.5 -32q-62 4 -131.5 24
t-123 43t-123.5 51t-122 43zM531 89q-63 7 -119.5 -4.5t-120.5 -44.5q47 -40 99 -40q81 0 141 89zM177 350q0 -94 28.5 -173.5t75.5 -126.5q127 68 274 79q48 97 48 221q0 95 -28.5 175.5t-77.5 127.5t-107 47t-107 -47t-77.5 -127.5t-28.5 -175.5zM993 349q0 -86 37 -140.5
t89.5 -63t105.5 8t90 72t37 130.5v266q0 26 -18 44t-44 18h-8v16h156v-16h-8q-26 0 -44 -18t-18 -44v-264q0 -116 -63 -180t-165 -64q-62 0 -113.5 18t-90.5 54.5t-61 96t-22 137.5v202q0 26 -18 44t-44 18h-8v16h280v-16h-9q-25 0 -43 -18t-18 -44v-273z" />
    <glyph glyph-name="QO.liga" unicode="QO" horiz-adv-x="1496" 
d="M619 72q-99 -87 -229 -87q-96 0 -177.5 49t-129 133t-47.5 183t47.5 183t129 133t177.5 49t177.5 -49t129 -133t47.5 -183q0 -125 -74 -224q60 -7 126 -29.5t114 -45t113 -42t126 -21.5q73 -3 126 16.5t114 76.5l9 -8q-77 -94 -143.5 -130t-135.5 -32q-62 4 -131.5 24
t-123 43t-123.5 51t-122 43zM531 89q-63 7 -119.5 -4.5t-120.5 -44.5q47 -40 99 -40q81 0 141 89zM1459 396.5q0 -86.5 -45 -160t-122.5 -116t-168.5 -42.5t-168.5 42.5t-122.5 116t-45 160t45 160t122.5 116t168.5 42.5t168.5 -42.5t122.5 -116t45 -160zM921 397
q0 -126 59.5 -215.5t143 -89.5t142.5 89.5t59 215.5t-59 215.5t-142.5 89.5t-143 -89.5t-59.5 -215.5zM177 350q0 -94 28.5 -173.5t75.5 -126.5q127 68 274 79q48 97 48 221q0 95 -28.5 175.5t-77.5 127.5t-107 47t-107 -47t-77.5 -127.5t-28.5 -175.5z" />
    <glyph glyph-name="QA.liga" unicode="QA" horiz-adv-x="1398" 
d="M218 145q29 -67 74.5 -106t97.5 -39q29 0 56 13q-6 6 -17.5 18.5t-19 21t-20 20.5t-21.5 20t-21.5 18t-23.5 16t-24.5 11.5t-26 8t-26.5 2.5t-28 -4zM390 715q128 0 226 -84.5t122 -212.5q13 -75 -4.5 -152t-64.5 -141.5t-115 -98.5q123 -97 244 -105q85 -6 155 34.5
t92 116.5q21 79 -25.5 146t-130.5 105l-71 -245q-18 -62 61 -62h9v-16h-157v16h16q23 0 34.5 16t20.5 46l157 544q7 24 -13.5 43t-47.5 19h-9v16h126q70 0 103 -89l204 -546q8 -23 27 -36t43 -13h5v-16h-88q-100 0 -143 115l-190 507l-83 -284q29 -16 54.5 -31t64.5 -44
t64.5 -56.5t42.5 -63.5t11 -70q-6 -37 -34.5 -67t-65.5 -48t-82.5 -31t-80.5 -18.5t-64 -7.5q-94 -4 -184.5 17.5t-151.5 75.5q-38 -9 -77 -9q-96 0 -177.5 49t-129 133t-47.5 183t47.5 183t129 133t177.5 49zM603 350q0 95 -28.5 175.5t-77.5 127.5t-107 47t-107 -47
t-77.5 -127.5t-28.5 -175.5q0 -104 35 -192q30 14 57.5 20t49 7t44.5 -7t39 -15.5t38.5 -25.5t36.5 -31t39 -37q11 11 27 39q60 102 60 242z" />
    <glyph glyph-name="RA.liga" unicode="RA" horiz-adv-x="1225" 
d="M349 684h-51q-26 0 -44 -18t-18 -44v-280h113q37 0 65 25.5t40 63.5t12 82t-12 82t-40 63.5t-65 25.5zM802 622l-77 -268q213 -116 247 -240q25 -91 -51 -153q-75 -61 -192 -56q-146 6 -251 115q-51 52 -84 124q-7 14 -17 39t-17 42t-19 37.5t-24.5 33t-31 21.5t-40.5 9
h-9v-248q0 -26 18 -44t44 -18h9v-16h-281v16h9q25 0 43 18t18 44v544q0 26 -18 44t-43 18h-9v16h361q53 0 98.5 -23.5t72.5 -67.5q26 -44 26 -96t-26 -97q-42 -69 -140 -83q-1 0 -21.5 -1.5t-22.5 -1.5q50 -7 82 -45.5t60 -118.5q67 -193 177 -233q77 -28 140 28
q59 53 61 139q2 112 -105 194q-31 24 -69 43l-53 -182q-4 -20 -2 -32t14 -18.5t23.5 -8.5t25.5 -2h9v-17h-157v17h16q23 0 34.5 15.5t20.5 45.5l135 467q7 24 -14 43t-47 19h-9v16h125q70 0 104 -89l204 -546q8 -23 26.5 -36t42.5 -13h6v-16h-88q-101 0 -144 115
q-23 61 -190 507z" />
    <glyph glyph-name="KA.liga" unicode="KA" horiz-adv-x="1163" 
d="M26 0v16h9q25 0 43 18t18 44v544q0 26 -18 44t-43 18h-9v16h281v-16h-9q-26 0 -44 -18t-18 -44v-278l241 317q6 7 2 15t-13 8h-26v16h125v-16h-13q-35 0 -60 -33l-237 -313q34 1 56.5 -1.5t48 -12t44.5 -28t39 -50t39 -76.5q84 -202 188 -240q70 -25 119 31t39 144
q-14 115 -122 190q-24 16 -51 30l-36 -125q-4 -20 -2 -32t14 -19t23 -9t26 -2h9v-16h-157v16h15q23 0 35 16t20 46l123 422q6 24 -14.5 43t-47.5 19h-9v16h126q70 0 103 -89l204 -546q8 -23 27 -36t43 -13h6v-16h-89q-100 0 -143 115q-38 100 -95.5 253.5t-94.5 253.5
l-81 -280q216 -101 253 -223q27 -87 -45 -151q-69 -63 -179 -62q-140 1 -241 107q-48 51 -81 121q-2 3 -10 20.5t-11 23.5t-11 22.5t-13 24t-13.5 21t-16 21l-16.5 16.5t-19 14.5t-21 9.5v-229q0 -26 18 -44t44 -18h9v-16h-281z" />
    <glyph glyph-name="ZA.liga" unicode="ZA" horiz-adv-x="1143" 
d="M115 700h227.5h227.5v-16h-5q-47 0 -70 -49l-254 -520q-36 -74 -79 -99q47 28 100 35t100.5 -2t95.5 -24.5t91.5 -32.5t82 -28t72.5 -8t58 25q35 32 41 92t-12.5 116.5t-60 100t-92.5 45.5l-57 -195q-4 -20 -1.5 -32t14 -18.5t23 -8.5t26.5 -2h8v-17h-156v17h15
q23 0 34.5 15.5t20.5 45.5l140 482q6 24 -14.5 43t-47.5 19h-9v16h126q70 0 103 -89l204 -546q8 -23 27 -36t43 -13h6v-16h-89q-100 0 -143 115q-46 122 -91 242t-99 265l-80 -275q131 1 190 -89q49 -76 23 -170q-27 -97 -117 -143q-65 -33 -148 -29q-48 2 -92.5 15.5
t-73 29t-70 30t-84 17.5t-114.5 -8h-146v16h6q46 0 70 49l254 520q35 74 79 99h-202q-45 0 -67 -12t-44 -57l-23 -44h-15l23 109q2 9 9 14.5t16 5.5z" />
    <glyph glyph-name="LG.liga" unicode="LG" horiz-adv-x="996" 
d="M781 165v166q0 22 -16 38t-38 16h-60v15h293v-15h-8q-22 0 -38 -16t-16 -38v-166q0 -22 16 -38t38 -16h8v-15h-144l-32 19q-45 -19 -93 -19q-66 0 -122.5 20t-100 58.5t-68 100t-24.5 138.5t24.5 134t68.5 90t99 48.5t123 15.5q85 0 160 -32q9 -4 16.5 1t7.5 14v13h12
v-184h-12q-20 82 -71 128t-113 46q-84 0 -136.5 -68t-52.5 -206q0 -139 55.5 -216.5t137.5 -77.5q46 0 86 17v29zM27 0v16h9q25 0 43 18t18 44v544q0 26 -18 44t-43 18h-9v16h281v-16h-9q-26 0 -44 -18t-18 -44v-544q0 -26 18 -44t44 -18q91 0 179.5 -6t138.5 -12.5
t100.5 -9t84.5 4t72.5 27.5t80.5 61l9 -8q-53 -65 -102 -103t-92.5 -49.5t-84.5 -9t-88 17.5t-92.5 30.5t-108.5 28t-126 12.5h-243z" />
    <glyph glyph-name="ZG.liga" unicode="ZG" horiz-adv-x="1174" 
d="M962 136v195q0 22 -16 38t-39 16h-60v15h294v-15h-8q-23 0 -39 -16t-16 -38v-166q0 -22 16 -38t39 -16h8v-15h-145l-31 19q-45 -19 -94 -19q-66 0 -122.5 20t-99.5 58.5t-67.5 100t-24.5 138.5t24 134t68 90t99 48.5t123 15.5q85 0 160 -32q9 -4 16.5 1t7.5 14v13h13
v-184h-13q-20 82 -71 128t-113 46q-84 0 -136.5 -68t-52.5 -206q0 -139 55.5 -216.5t137.5 -77.5q46 0 87 17zM115 700h227.5h227.5v-16h-5q-47 0 -70 -49l-254 -520q-36 -74 -79 -99q96 25 181.5 32t154 -1t127 -19.5t131 -24.5t135.5 -15q73 -3 126 16.5t115 76.5l9 -8
q-78 -94 -144.5 -130t-135.5 -32q-79 5 -178.5 23.5t-174.5 36t-171.5 28t-181.5 1.5h-146v16h6q46 0 70 49l254 520q35 74 79 99h-202q-45 0 -67 -12t-44 -57l-23 -44h-15l23 109q2 9 9 14.5t16 5.5z" />
    <glyph glyph-name="KG.liga" unicode="KG" horiz-adv-x="1208" 
d="M996 165v166q0 22 -16 38t-39 16h-60v15h294v-15h-8q-23 0 -39 -16t-16 -38v-166q0 -22 16 -38t39 -16h8v-15h-145l-31 19q-45 -19 -94 -19q-66 0 -122.5 20t-99.5 58.5t-67.5 100t-24.5 138.5t24 134t68 90t99 48.5t123 15.5q85 0 160 -32q9 -4 16.5 1t7.5 14v13h13
v-184h-13q-20 82 -71 128t-113 46q-84 0 -136.5 -68t-52.5 -206q0 -139 55.5 -216.5t137.5 -77.5q46 0 87 17v29zM27 0v16h9q25 0 43 18t18 44v544q0 26 -18 44t-43 18h-9v16h281v-16h-9q-26 0 -44 -18t-18 -44v-278l241 317q6 7 2 15t-13 8h-26v16h125v-16h-13
q-35 0 -60 -33l-240 -316q53 13 107 7.5t104 -34.5q34 -20 72 -59t80.5 -87.5t73.5 -76.5q66 -58 150.5 -74.5t167 4t155.5 71.5l10 -9q-84 -73 -197 -102t-208 -15q-95 15 -165.5 64t-138.5 127q-10 12 -34 41t-33 39t-30 29t-37 26t-40 14t-53 7v-229q0 -26 18 -44t44 -18
h9v-16h-281z" />
    <glyph glyph-name="RG.liga" unicode="RG" horiz-adv-x="1276" 
d="M350 684h-51q-26 0 -44 -18t-18 -44v-280h113q37 0 65 25.5t40 63.5t12 82t-12 82t-40 63.5t-65 25.5zM1065 136v195q0 22 -16 38t-38 16h-60v15h293v-15h-8q-22 0 -38 -16t-16 -38v-166q0 -22 16 -38t38 -16h8v-15h-144l-32 19q-45 -19 -94 -19q-66 0 -122.5 20
t-99.5 58.5t-67.5 100t-24.5 138.5t24.5 134t68.5 90t99 48.5t122 15.5q86 0 161 -32q8 -4 16 1t8 14v13h12v-184h-12q-20 82 -71 128t-114 46q-83 0 -135.5 -68t-52.5 -206q0 -139 55 -216.5t138 -77.5q46 0 86 17zM27 16h9q25 0 43 18t18 44v544q0 26 -18 44t-43 18h-9v16
h361q53 0 98.5 -23.5t72.5 -67.5q26 -44 26 -96t-26 -97q-41 -67 -135 -82q38 -1 80 -28.5t73 -61t76 -83t77 -76.5q65 -58 150 -74.5t167 4t155 71.5l10 -9q-80 -76 -194 -103.5t-213 -12.5q-57 9 -108 33.5t-88.5 57.5t-72.5 70.5t-67 73.5t-64.5 65t-72.5 47t-83 18h-12
v-248q0 -26 18 -44t44 -18h9v-16h-281v16z" />
    <glyph glyph-name="NN.liga" unicode="NN" horiz-adv-x="1150" 
d="M26 0v16h9q25 0 43 18t18 44v544q0 26 -16.5 44t-41.5 18h-9v16h89q48 0 77.5 -27.5t65.5 -87.5l306 -505v542q0 26 -16.5 44t-41.5 18h-9v16h88q48 0 78 -27.5t66 -87.5l305 -505v542q0 26 -18 44t-43 18h-9v16h157v-16h-9q-25 0 -43.5 -18t-18.5 -44v-544
q0 -26 18.5 -44t43.5 -18h9v-16h-126q-32 0 -53.5 21t-49.5 68l-312 516v-527q0 -26 18 -44t43 -18h9v-16h-125q-32 0 -53.5 21t-49.5 68l-312 516v-527q0 -26 18 -44t43 -18h9v-16h-157z" />
    <glyph glyph-name="VO.liga" unicode="VO" horiz-adv-x="1393" 
d="M75 635q-9 23 -27.5 36t-42.5 13h-6v16h88q101 0 144 -115q31 -84 94.5 -253t95.5 -254l103 355q15 47 13 92.5t-10.5 73.5t-17.5 57t-9 44h117q-27 -95 -87.5 -303.5t-92.5 -318.5l-7 -25q37 -63 92 -110.5t117.5 -74.5t131 -34t133 6.5t122 53.5t100 100t66 151.5
t19.5 204.5q-2 94 -30.5 174t-76.5 128t-105 48q-58 0 -107 -47t-77.5 -127.5t-28.5 -175.5t28.5 -175.5t77.5 -127.5t107 -47l2 1v-16h-1h-1q-96 0 -177.5 49t-129 133t-47.5 183t47.5 183t129 133t177.5 49t177.5 -49t129 -133t47.5 -183q0 -101 -35.5 -192t-97 -157.5
t-140.5 -113.5t-170 -67t-182 -11q-98 9 -179 40.5t-137 78.5t-93.5 101t-61.5 117q-9 25 -24.5 66.5t-57.5 154.5t-100 268z" />
    <glyph glyph-name="XO.liga" unicode="XO" horiz-adv-x="1296" 
d="M6 684v16h88q50 0 83 -29.5t61 -85.5l88 -181l49 106q21 44 23.5 77t-6 47.5t-18.5 32.5t-10 33h117l-147 -312l80 -163q29 -60 66 -111.5t85.5 -95t102.5 -67.5t118 -29t133 20q60 21 101.5 64.5t62 101.5t28.5 116.5t6 125.5q-3 94 -31.5 174t-76.5 128t-105 48
q-58 0 -107 -47t-77.5 -127.5t-28.5 -175.5t28.5 -175.5t77.5 -127.5t107 -47l2 1v-16h-1h-1q-96 0 -177.5 49t-129 133t-47.5 183t47.5 183t129 133t177.5 49t177.5 -49t129 -133t47.5 -183q0 -152 -93 -271.5t-239 -160.5q-94 -28 -189 -19.5t-178 44.5t-153 103.5
t-114 158.5l-45 91l-102 -218q-17 -38 -13 -50t31 -12h15v-16h-141v16h15q24 0 44 18t32 44l111 235l-157 322q-24 49 -70 49h-6z" />
    <glyph glyph-name="LA.liga" unicode="LA" horiz-adv-x="993" 
d="M26 16h9q25 0 43 18t18 44v544q0 26 -18 44t-43 18h-9v16h281v-16h-9q-26 0 -44 -18t-18 -44v-544q0 -26 18 -44t44 -18h45q23 0 34.5 16t20.5 46l157 544q7 24 -13.5 43t-47.5 19h-9v16h125q70 0 104 -89l204 -546q8 -23 27 -36t42 -13h6v-16h-88q-101 0 -143 115
l-191 507l-157 -544q-18 -60 57 -62q40 1 60.5 13.5t44.5 55.5l25 44h16l-26 -109q-5 -20 -25 -20h-268h-272v16z" />
    <glyph glyph-name="MO.liga" unicode="MO" horiz-adv-x="1642" 
d="M27 0v16h9q25 0 43 18t18 44v544q0 23 -19.5 42.5t-41.5 19.5h-9v16h82q51 0 84.5 -30t58.5 -85l186 -407l190 522h194v-16h-9q-25 0 -43.5 -18t-18.5 -44v-303q0 -72 13.5 -136t37 -111.5t55.5 -86.5t70 -62.5t80 -39.5t85 -17t86 4q60 11 111 45t91.5 91.5t62 146
t17.5 197.5q-2 94 -30.5 174t-76.5 128t-105 48q-58 0 -107 -47t-77.5 -127.5t-28.5 -175.5t28.5 -175.5t77.5 -127.5t107 -47l2 1v-16h-1h-1q-96 0 -177.5 49t-129 133t-47.5 183t47.5 183t129 133t177.5 49t177.5 -49t129 -133t47.5 -183q0 -231 -157 -375
q-128 -116 -309 -134q-183 -17 -324 76q-163 107 -194 318q-7 44 -7 92v281l-214 -592h-18l-265 586v-524q0 -26 18 -44t43 -18h9v-16h-157z" />
    <glyph glyph-name="NO.liga" unicode="NO" horiz-adv-x="1449" 
d="M26 16h9q25 0 43 18t18 44v544q0 26 -16.5 44t-41.5 18h-9v16h89q48 0 77.5 -27.5t65.5 -87.5l306 -505v542q0 26 -18 44t-44 18h-9v16h157v-16h-9q-25 0 -43 -18t-18 -44v-569q46 -78 144.5 -130t191.5 -52q71 0 130.5 28t100 75.5t68.5 109.5t40.5 129.5t10.5 136.5
q-3 94 -31.5 174t-76.5 128t-105 48q-58 0 -107 -47t-77.5 -127.5t-28.5 -175.5t28.5 -175.5t77.5 -127.5t107 -47l2 1v-16h-1h-1q-96 0 -177.5 49t-129 133t-47.5 183t47.5 183t129 133t177.5 49t177.5 -49t129 -133t47.5 -183q0 -101 -38.5 -193t-104 -159.5t-156.5 -108
t-191 -40.5q-181 0 -308 70.5t-232 243.5q-171 283 -267 442v-527q0 -26 18 -44t43 -18h9v-16h-157v16z" />
    <glyph glyph-name="LL.liga" unicode="LL" horiz-adv-x="872" 
d="M352 174v17h9q25 0 43 18t18 43v370q0 26 -18 44t-43 18h-9v16h265v-16h-9q-25 0 -43 -18t-18 -44v-370q0 -25 18 -43t43 -18h93q44 0 65.5 12t46.5 57l25 44h15l-26 -109q-5 -21 -25 -21h-450zM26 0v16h9q25 0 43 18t18 44v544q0 26 -18 44t-43 18h-9v16h281v-16h-9
q-26 0 -44 -18t-18 -44v-544q0 -26 18 -44t44 -18h368q44 0 65.5 12.5t46.5 56.5l25 44h15l-25 -109q-5 -20 -26 -20h-741z" />
    <glyph glyph-name="SE.liga" unicode="SE" horiz-adv-x="1213" 
d="M981 684h-318.5h-363.5q-42 0 -73 -16.5t-45 -40.5t-9 -53t30 -53q23 -22 64.5 -46.5t82 -44t84.5 -46t76.5 -53t53.5 -65.5t21 -84q-1 -47 -24 -84t-59.5 -59t-79.5 -33t-87 -11q-29 0 -66.5 4t-82 13.5t-77.5 28.5t-38 45l-28 133h28l18 -34q82 -162 235 -167
q54 -2 90 17.5t47 49t5 63.5t-29 63q-21 26 -61 52.5t-82.5 46.5t-88 46t-80.5 51.5t-58 61.5t-23 77q0 42 23.5 73t62.5 47.5t80 24.5t86 9h787q20 0 25 -20l25 -109h-15l-25 44q-25 44 -46.5 56.5t-64.5 12.5zM683 225v284q0 25 -18 43.5t-44 18.5h-8v16h280v-16h-9
q-25 0 -43 -18.5t-18 -43.5v-167h165q25 0 36.5 16.5t7.5 39.5l-9 37h16l54 -182h-16l-17 32q-21 41 -66 41h-171v-248q0 -26 18 -44t44 -18h157q44 0 65 12.5t46 56.5l25 44h16l-26 -109q-5 -20 -25 -20h-265h-265v16h9q25 0 43 18t18 44v147z" />
    <glyph glyph-name="SF.liga" unicode="SF" horiz-adv-x="1155" 
d="M981 684h-341.5h-340.5q-42 0 -73 -16.5t-45 -40.5t-9 -53t30 -53q23 -22 64.5 -46.5t82 -44t84.5 -46t76.5 -53t53.5 -65.5t21 -84q-1 -47 -24 -84t-59.5 -59t-79.5 -33t-87 -11q-29 0 -66.5 4t-82 13.5t-77.5 28.5t-38 45l-28 133h28l18 -34q82 -162 235 -167
q54 -2 90 17.5t47 49t5 63.5t-29 63q-21 26 -61 52.5t-82.5 46.5t-88 46t-80.5 51.5t-58 61.5t-23 77q0 42 23.5 73t62.5 47.5t80 24.5t86 9h787q20 0 25 -20l25 -109h-15l-25 44q-25 44 -46.5 56.5t-64.5 12.5zM683 78v147v284q0 25 -18 43.5t-44 18.5h-8v16h280v-16h-9
q-25 0 -43 -18.5t-18 -43.5v-167h165q25 0 36.5 16.5t7.5 39.5l-9 37h16l53 -182h-15l-17 32q-21 41 -66 41h-171v-248q0 -26 18 -44t44 -18h9v-16h-281v16h9q25 0 43 18t18 44z" />
    <glyph glyph-name="ST.liga" unicode="ST" horiz-adv-x="1141" 
d="M1084 700q10 0 17 -5.5t9 -14.5l22 -109h-15l-22 44q-22 45 -44 57t-68 12h-44q-25 0 -43 -18t-18 -44v-544q0 -26 18 -44t43 -18h9v-16h-281v16h9q26 0 44 18t18 44v544q0 26 -18.5 44t-43.5 18h-45q-45 0 -67 -12t-44 -57l-22 -44h-15l22 109l2 4h-208q-42 0 -73 -16.5
t-45 -40.5t-9 -53t30 -53q23 -22 64.5 -46.5t82 -44t84.5 -46t76.5 -53t53.5 -65.5t21 -84q-1 -47 -24 -84t-59.5 -59t-79.5 -33t-87 -11q-29 0 -66.5 4t-82 13.5t-77.5 28.5t-38 45l-28 133h28l18 -34q82 -162 235 -167q54 -2 90 17.5t47 49t5 63.5t-29 63q-21 26 -61 52.5
t-82.5 46.5t-88 46t-80.5 51.5t-58 61.5t-23 77q0 42 23.5 73t62.5 47.5t80 24.5t86 9h789z" />
    <glyph glyph-name="SR.liga" unicode="SR" horiz-adv-x="1273" 
d="M683 509q0 25 -18 43.5t-44 18.5h-8v16h280v-16h-9q-23 0 -40.5 -16t-20.5 -39v-174h113q37 0 64.5 25.5t40 63.5t12.5 82t-12.5 82t-40 63.5t-64.5 25.5h-340h-297q-42 0 -73 -16.5t-45 -40.5t-9 -53t30 -53q23 -22 64.5 -46.5t82 -44t84.5 -46t76.5 -53t53.5 -65.5
t21 -84q-1 -47 -24 -84t-59.5 -59t-79.5 -33t-87 -11q-29 0 -66.5 4t-82 13.5t-77.5 28.5t-38 45l-28 133h28l18 -34q82 -162 235 -167q54 -2 90 17.5t47 49t5 63.5t-29 63q-21 26 -61 52.5t-82.5 46.5t-88 46t-80.5 51.5t-58 61.5t-23 77q0 42 23.5 73t62.5 47.5t80 24.5
t86 9h339.5h339.5q53 0 98.5 -23.5t71.5 -67.5q27 -44 27 -96t-27 -97q-40 -67 -133 -82q100 0 142 -115l40 -109q1 -2 2 -7q13 -35 19.5 -49.5t16.5 -26t24 -11.5h9v-16h-91q-69 0 -104 89l-41 108q-2 5 -5 14l-15 36t-14 30t-17.5 26.5t-21 15.5t-27.5 7h-105v-248
q0 -26 18 -44t44 -18h9v-16h-281v16h9q25 0 43 18t18 44v431z" />
    <glyph glyph-name=".notdef" horiz-adv-x="527" 
d="M50 700h427v-700h-427v700zM78 680l185 -309l186 309h-371zM251 350l-180 300v-601zM264 329l-185 -308h370zM276 350l181 -303v605z" />
    <glyph glyph-name=".null" horiz-adv-x="0" 
 />
    <glyph glyph-name=".null" horiz-adv-x="0" 
 />
    <glyph glyph-name="nonmarkingreturn" horiz-adv-x="333" 
 />
    <glyph glyph-name="LF" unicode="&#xa;" horiz-adv-x="0" 
 />
    <glyph glyph-name="controlCR" unicode="&#xd;" horiz-adv-x="0" 
 />
    <glyph glyph-name="space" unicode=" " horiz-adv-x="355" 
 />
    <glyph glyph-name="exclam" unicode="!" horiz-adv-x="244" 
d="M85 -5v111h74v-111h-74zM85 160l-20 545h114l-20 -545h-74z" />
    <glyph glyph-name="quotedbl" unicode="&#x22;" horiz-adv-x="268" 
d="M227 582h-20l-68 172h88v-172zM103 582h-20l-68 172h88v-172z" />
    <glyph glyph-name="numbersign" unicode="#" horiz-adv-x="680" 
d="M417 404h-126l-29 -108h127zM570 700l-60 -225h110v-71h-129l-29 -108h158v-71h-177l-61 -225h-73l61 225h-127l-60 -225h-73l60 225h-111v71h130l29 108h-159v71h178l60 225h73l-60 -225h126l61 225h73z" />
    <glyph glyph-name="dollar" unicode="$" horiz-adv-x="678" 
d="M379 273v-253q57 6 85 39.5t24.5 75t-32.5 76.5q-25 30 -77 62zM306 464v220q-38 -3 -66.5 -20t-40.5 -40.5t-6.5 -51.5t29.5 -51q28 -26 84 -57zM623 700q-3 -5 -23.5 -44t-29 -56t-22.5 -46.5t-21 -49.5l-6 -14l-23 12l14 34q12 26 7.5 47.5t-16.5 37t-33.5 27.5
t-43.5 19t-47 11v-253q42 -21 67.5 -35.5t59 -39t52.5 -47t32.5 -54.5t13.5 -67q-1 -44 -20.5 -79t-52.5 -57t-71.5 -34.5t-80.5 -15.5v-98h-73v99q-34 3 -66.5 9t-66.5 16t-56.5 26.5t-26.5 37.5l-28 133h28l18 -34q71 -141 198 -163v292q-6 3 -19 10q-32 16 -48 24.5
t-44 25t-43 28t-34.5 29.5t-29.5 34t-17.5 37t-7.5 44q0 41 22 72t59 49t77.5 27t84.5 11v97h73v-100q35 -4 75 -14.5t60 -15.5t43 0.5t41 27.5h25z" />
    <glyph glyph-name="percent" unicode="%" horiz-adv-x="679" 
d="M628 135q0 -58 -40 -99t-96 -41t-95.5 41t-39.5 99t39.5 99t95.5 41t96 -41t40 -99zM411 135q0 -55 24 -94.5t57.5 -39.5t57.5 39.5t24 94.5t-24 94.5t-57.5 39.5t-57.5 -39.5t-24 -94.5zM322 565q0 -58 -39.5 -99t-96 -41t-96 41t-39.5 99t39.5 99t96 41t96 -41
t39.5 -99zM105 565q0 -55 24 -94.5t57.5 -39.5t57.5 39.5t24 94.5t-24 94.5t-57.5 39.5t-57.5 -39.5t-24 -94.5zM405 705h68q-24 -85 -63 -224.5t-73 -260t-63 -225.5h-68q38 137 108.5 388t90.5 322z" />
    <glyph glyph-name="ampersand" unicode="&#x26;" horiz-adv-x="799" 
d="M600 287q43 -98 27.5 -169.5t-82 -112t-169.5 -40.5q-124 0 -212 48t-103 137q-8 41 6 82.5t44 77t65 64t77 52.5q-64 24 -104 73.5t-31 105.5q7 39 36 66.5t71.5 40.5t83.5 18.5t86 4.5q139 -2 209 -60q56 -47 26 -98q-32 -54 -150 -85q42 25 61.5 56t14.5 59t-25.5 52
t-58.5 38.5t-84 14.5q-48 0 -86.5 -19t-56.5 -48t-13 -66t38 -69q15 -15 31 -26t34.5 -18t31.5 -11t35.5 -5.5t31 -2t34 0t29.5 0.5q-32 -14 -43.5 -19t-47.5 -21.5t-56.5 -30.5t-50 -34t-50.5 -43.5t-35 -49.5q-19 -33 -20.5 -70t12 -69.5t37.5 -60t59.5 -44t74.5 -18.5
q77 -3 134.5 28t78.5 93.5t-24 157.5q-4 -2 -29 -17.5t-36 -21.5q-28 -16 -46.5 -28.5t-38 -31t-28 -35.5t-7.5 -39.5t16 -45.5q-35 11 -58.5 42t-20.5 63q2 18 14 37t26.5 33t39 31t41 26.5t44 25t37.5 20.5q5 3 16 9q20 12 31.5 19t32.5 20.5t32.5 23.5t26.5 25t19.5 28
t5.5 28t-8.5 30t-27.5 30q56 -18 80.5 -44.5t19.5 -54.5t-27 -58t-54 -54t-67 -41z" />
    <glyph glyph-name="quotesingle" unicode="'" horiz-adv-x="191" 
d="M109 517h-28l-38 183h105z" />
    <glyph glyph-name="parenleft" unicode="(" horiz-adv-x="295" 
d="M246 716q-103 -169 -103 -363.5t103 -363.5q-61 34 -103.5 93.5t-61.5 128t-18.5 144.5t21 144t62.5 126t100 91z" />
    <glyph glyph-name="parenright" unicode=")" horiz-adv-x="295" 
d="M49 716q58 -33 100 -91t62.5 -126t21 -144t-18.5 -144.5t-61.5 -128t-103.5 -93.5q103 169 103 363.5t-103 363.5z" />
    <glyph glyph-name="asterisk" unicode="*" horiz-adv-x="397" 
d="M79 678l101 -74l-16 124h66l-14 -123l100 76l33 -58l-129 -53l113 -83l-47 -47l-87 117l-86 -119l-47 47l111 84l-131 51z" />
    <glyph glyph-name="plus" unicode="+" horiz-adv-x="589" 
d="M250 298h-201v88h201v201h89v-201h201v-88h-201v-202h-89v202z" />
    <glyph glyph-name="comma" unicode="," horiz-adv-x="161" 
d="M121 -5q0 -24 -17 -36t-41 -13v9q12 4 14.5 11t2.5 29v5h-41v100h82v-63v-42z" />
    <glyph glyph-name="hyphen" unicode="-" horiz-adv-x="567" 
d="M38 208v88h491v-88h-245.5h-245.5z" />
    <glyph glyph-name="period" unicode="." horiz-adv-x="161" 
d="M121 0h-82v100h82v-100z" />
    <glyph glyph-name="slash" unicode="/" horiz-adv-x="317" 
d="M111 145h-61l156 556h62z" />
    <glyph glyph-name="zero" unicode="0" horiz-adv-x="828" 
d="M768 350q0 -99 -47.5 -183t-129 -133t-177.5 -49t-177.5 49t-129 133t-47.5 183t47.5 183t129 133t177.5 49t177.5 -49t129 -133t47.5 -183zM201 350q0 -95 28.5 -175.5t77.5 -127.5t107 -47t107 47t77.5 127.5t28.5 175.5t-28.5 175.5t-77.5 127.5t-107 47t-107 -47
t-77.5 -127.5t-28.5 -175.5z" />
    <glyph glyph-name="one" unicode="1" horiz-adv-x="392" 
d="M57 16h9q25 0 43 18t18 44v476q0 26 -18 44t-43 18h-9v16q31 0 64 14t70 35t60 29h16v-632q0 -26 18 -44t44 -18h9v-16h-281v16z" />
    <glyph glyph-name="two" unicode="2" horiz-adv-x="630" 
d="M183 444l-127 75q37 88 111 136.5t170 48.5q59 0 105 -15t73 -40.5t40.5 -54.5t13.5 -60q0 -49 -30 -95.5t-75 -81t-101.5 -70t-107 -64.5t-93.5 -63t-59 -65h307h30t21.5 3t21 9.5t17 18t20.5 29.5l19 34h15l-33 -169q-2 -9 -9 -14.5t-17 -5.5h-421v68q0 39 18.5 77
t48.5 70t67 63.5t75.5 62t72 61t59 65.5t33.5 71q8 24 4 51t-15 49t-37 36.5t-63 14.5q-58 0 -104 -35t-60 -89.5t10 -120.5z" />
    <glyph glyph-name="three" unicode="3" horiz-adv-x="686" 
d="M61 179l140 77q-23 -50 -16.5 -96t30.5 -81.5t65.5 -56.5t89.5 -21q66 0 105.5 51t39.5 123q0 95 -62.5 161t-158.5 85v15h91l169 169h-352h-30t-22 -3t-21 -9.5t-16.5 -18t-20.5 -29.5l-19 -34h-15l33 169q2 9 9 14.5t16 5.5h464v-95l-172 -172q29 -8 55 -19t58.5 -32.5
t55 -48t37 -68.5t12.5 -93q-2 -32 -17 -64t-44 -60t-79.5 -45.5t-115.5 -17.5q-105 0 -186.5 51t-122.5 143z" />
    <glyph glyph-name="four" unicode="4" horiz-adv-x="629" 
d="M71 242h260v146l141 140v-281q18 5 32 19.5t32 44.5l25 44h15l-26 -109q-5 -20 -25 -20h-53v-148q0 -26 18 -44t43 -18h9v-16h-281v16h9q25 0 43 18t18 44v148h-285v16q190 226 225 458h176q-124 -241 -376 -458z" />
    <glyph glyph-name="five" unicode="5" horiz-adv-x="637" 
d="M61 193l127 69q-20 -50 -14 -98t28 -85.5t59.5 -59t80.5 -18.5q60 4 101 59.5t38 129.5q-2 69 -29.5 117t-70.5 69t-96 24.5t-107.5 -11t-104.5 -42.5l50 353h135h135q13 0 27.5 -5.5t23.5 -11t18.5 -8.5t18.5 2.5t18 22.5l12 23h14l-29 -97q-6 -21 -23 -21h-348
l-33 -231q71 46 151 67t154 1q47 -13 84 -39.5t58.5 -61t31.5 -74.5t7 -79.5t-20 -76t-45.5 -64.5t-72.5 -45t-98 -17q-101 0 -175 50t-106 158z" />
    <glyph glyph-name="six" unicode="6" horiz-adv-x="640" 
d="M333 435q-58 0 -95.5 -45t-44 -108.5t5 -126.5t50.5 -105.5t92 -38.5q44 3 76 36t46 80t13 101t-16.5 100t-48.5 76.5t-78 30.5zM336 696q-45 -2 -80 -33t-52.5 -78t-25.5 -96.5t-7 -97.5q35 32 80 48.5t89.5 16t87.5 -16t76 -44t53 -72.5t20 -97q0 -108 -70.5 -170
t-174.5 -62q-61 0 -110.5 24.5t-81 66t-52.5 95t-24 113t3 119t29.5 113.5t55.5 95.5t79.5 66t103.5 24.5q81 0 141.5 -45t80.5 -122l-126 -58l-8 13l10 9q22 21 25 54.5t-10.5 63.5t-43.5 51t-68 19z" />
    <glyph glyph-name="seven" unicode="7" horiz-adv-x="592" 
d="M341 0h-165q0 65 27.5 149.5t66 157t82 141t72 107.5t39.5 50h-270h-30t-22 -3t-21 -9.5t-16.5 -18t-20.5 -29.5l-19 -34h-15l33 169q2 9 9 14.5t16 5.5h449q-113 -140 -170.5 -328.5t-44.5 -371.5z" />
    <glyph glyph-name="eight" unicode="8" horiz-adv-x="658" 
d="M328.5 -10q-73.5 0 -132.5 22.5t-96 70.5t-37 114q0 87 56.5 137.5t139.5 60.5q-85 10 -135.5 52.5t-45.5 113.5q4 72 73.5 112.5t177 40.5t177 -40.5t74.5 -112.5q4 -71 -46.5 -113.5t-135.5 -52.5q83 -10 140 -60.5t56 -137.5q0 -66 -37 -114t-96 -70.5t-132.5 -22.5z
M328.5 5q48.5 0 84.5 28t52 70t16 91.5t-16 91.5t-52 70t-84.5 28t-84.5 -28t-52 -70t-16 -91.5t16 -91.5t52 -70t84.5 -28zM329 402q41 0 74 16t50 42.5t25 58t0.5 63.5t-24.5 58.5t-50 43t-75.5 16.5t-75.5 -16.5t-49.5 -43t-24.5 -58.5t0 -63.5t25 -58t50 -42.5t75 -16z
" />
    <glyph glyph-name="nine" unicode="9" horiz-adv-x="640" 
d="M306 270q59 0 96.5 44.5t43.5 107.5t-6 125.5t-52.5 105.5t-96.5 41q-38 -1 -67.5 -25.5t-43.5 -62t-20 -82.5t3 -89.5t26 -81.5t47.5 -60t69.5 -23zM303 9q46 2 80.5 33t52 78t25.5 96.5t7 97.5q-35 -33 -80 -49t-89.5 -15.5t-87.5 16t-76 44t-53 72.5t-20 97
q0 108 70.5 170t174.5 62q61 0 111 -24.5t81 -66t52 -95t24 -113t-3 -119t-29.5 -113.5t-55 -95.5t-79.5 -66t-104 -24.5q-81 -1 -141.5 44.5t-79.5 122.5l125 58l8 -13l-9 -9q-23 -21 -25.5 -54.5t10.5 -63.5t43 -51t68 -19z" />
    <glyph glyph-name="colon" unicode=":" horiz-adv-x="179" 
d="M48 110v100h82v-100h-82zM48 474v100h82v-100h-82z" />
    <glyph glyph-name="semicolon" unicode=";" horiz-adv-x="185" 
d="M133 105q0 -24 -17 -36t-41 -13v9q12 4 14.5 11t2.5 29v5h-41v100h82v-63v-42zM51 474v100h82v-100h-82z" />
    <glyph glyph-name="less" unicode="&#x3c;" horiz-adv-x="447" 
d="M388 116l-347 234l347 234v-132l-222 -102l222 -102v-132z" />
    <glyph glyph-name="equal" unicode="=" horiz-adv-x="585" 
d="M47 404v88h491v-88h-245.5h-245.5zM538 208h-491v88h491v-88z" />
    <glyph glyph-name="greater" unicode="&#x3e;" horiz-adv-x="447" 
d="M405 350l-347 -234v132l222 102l-222 102v132z" />
    <glyph glyph-name="question" unicode="?" horiz-adv-x="650" 
d="M290 -19v59h59v-59h-59zM468 510q14 83 -36 150q-39 52 -112 53q-74 -1 -113 -53q-50 -67 -36 -150l-126 46q5 46 31 81t66 54.5t84.5 28.5t93.5 8q42 1 82 -6t78 -23t64.5 -40.5t40.5 -63t9 -85.5q-4 -34 -19.5 -64t-37.5 -53.5t-47.5 -46.5t-50.5 -47.5t-45.5 -52
t-33.5 -65.5t-13 -82h-55q0 41 6 76.5t14 59.5t23.5 51t25.5 41t31 40t30 37q37 49 46 106z" />
    <glyph glyph-name="at" unicode="@" horiz-adv-x="880" 
d="M437 156q48 0 85 24t58 68q19 43 19 94t-20 94q-20 44 -57 67.5t-85 23.5q-76 0 -126 -54t-50 -132q0 -77 50.5 -131t125.5 -54zM171.5 610.5q52.5 52.5 122 82t147 29.5t146.5 -29.5t122 -82t82 -122t29 -146.5q0 -80 -34.5 -128t-88.5 -45q-47 2 -87 47
q-24 -49 -71 -77.5t-102 -28.5q-96 0 -164 68.5t-68 164.5t67 163.5t163 67.5q56 0 99.5 -26.5t69.5 -76.5l-16 65h62v-280q0 -28 33 -42q42 -19 74 13q34 35 34 115q0 71 -27 135.5t-75.5 113t-112.5 75.5t-135.5 27t-136 -27t-113 -75.5t-75.5 -113t-27 -136t27 -135.5
t75.5 -112.5t113 -75.5t136 -27t135.5 27t112 76q29 28 50 61h33q-25 -45 -62 -82q-53 -53 -122 -82t-146.5 -29t-147 29t-122 82t-82 122.5t-29.5 146.5t29.5 146.5t82 122z" />
    <glyph glyph-name="A" unicode="A" horiz-adv-x="667" 
d="M164 342h186l-105 280zM661 16h6v-16h-88q-101 0 -144 115l-79 211h-196l-72 -248q-18 -62 61 -62h9v-16h-157v16h15q23 0 35 16t20 46l158 544q7 24 -14 43t-47 19h-9v16h125q70 0 103 -89l204 -546q9 -23 27.5 -36t42.5 -13z" />
    <glyph glyph-name="B" unicode="B" horiz-adv-x="626" 
d="M338 358h-102v-280q0 -26 18 -44t44 -18h44q34 0 61.5 19t43 49t23.5 66.5t2 73t-20.5 66.5t-44 49t-69.5 19zM307 684h-9q-26 0 -44 -18t-18 -44v-248h71q40 0 71.5 17t47 44.5t22 60.5t-2 66t-24.5 60.5t-46.5 44.5t-67.5 17zM26 0v16h9q25 0 43 18t18 44v544
q0 26 -18 44t-43 18h-9v16h326q57 0 100 -21.5t64.5 -55t26.5 -74t-8.5 -77t-47.5 -66t-82 -40.5q110 -5 157 -82q27 -45 27 -97t-27 -96q-26 -44 -71.5 -67.5t-98.5 -23.5h-366z" />
    <glyph glyph-name="C" unicode="C" horiz-adv-x="668" 
d="M393 684q-93 0 -153 -85t-60 -242q0 -156 62.5 -243.5t155.5 -87.5q74 0 132.5 36.5t95.5 100.5l13 -7q-36 -71 -101.5 -113.5t-144.5 -42.5q-74 0 -138 22.5t-112.5 66t-76 112.5t-27.5 156t27.5 154t76.5 107.5t112 61t138 20.5q96 0 171 -33q10 -4 18.5 2t8.5 16v15
h14v-208h-14q-23 93 -75.5 142.5t-122.5 49.5z" />
    <glyph glyph-name="D" unicode="D" horiz-adv-x="684" 
d="M307 0h-281v16h9q25 0 43 18t18 44v544q0 26 -18 44t-43 18h-9v16h281q81 0 147.5 -30t107 -79.5t63 -112t23 -128.5t-21.5 -128.5t-63 -112t-107.5 -79.5t-148.5 -30zM307 684h-9q-26 0 -44 -18t-18 -44v-544q0 -26 18 -44t44 -18h9q50 0 91 29t66 75.5t38.5 106.5
t13.5 123t-13.5 123t-38.5 106.5t-66 75.5t-91 29z" />
    <glyph glyph-name="E" unicode="E" horiz-adv-x="632" 
d="M26 0v16h9q25 0 43 18t18 44v544q0 26 -18 44t-43 18h-9v16h504q20 0 25 -20l26 -109h-15l-25 44q-26 44 -47 56.5t-65 12.5h-131q-26 0 -44 -18t-18 -44v-280h165q25 0 37 17t7 39l-8 37h15l54 -182h-16l-17 32q-21 41 -66 41h-171v-248q0 -26 18 -44t44 -18h157
q44 0 65 12.5t47 56.5l25 44h15l-26 -109q-5 -20 -25 -20h-530z" />
    <glyph glyph-name="F" unicode="F" horiz-adv-x="596" 
d="M26 0v16h9q25 0 43 18t18 44v544q0 26 -18 44t-43 18h-9v16h504q20 0 25 -20l26 -109h-15l-25 44q-26 44 -47 56.5t-65 12.5h-131q-26 0 -44 -18t-18 -44v-280h165q25 0 37 17t7 39l-8 37h15l54 -182h-16l-17 32q-21 41 -66 41h-171v-248q0 -26 18 -44t44 -18h9v-16h-281
z" />
    <glyph glyph-name="G" unicode="G" horiz-adv-x="730" 
d="M495 45v219q0 26 -18 44t-43 18h-68v16h340v-16h-9q-26 0 -44 -18t-18 -44v-186q0 -26 18 -44t44 -18h9v-16h-172l-35 22q-51 -22 -106 -22q-74 0 -138 22.5t-112.5 66t-76 112.5t-27.5 156t27.5 154t76.5 107.5t112 61t138 20.5q106 0 181 -33q9 -4 18 2t9 16v15h14
v-208h-14q-23 92 -80 142t-128 50q-93 0 -153 -85t-60 -242q0 -156 62.5 -243.5t155.5 -87.5q52 0 97 19z" />
    <glyph glyph-name="H" unicode="H" horiz-adv-x="814" 
d="M26 0v16h9q25 0 43 18t18 44v544q0 26 -18 44t-43 18h-9v16h281v-16h-9q-26 0 -44 -18t-18 -44v-280h341v280q0 26 -18 44t-43 18h-9v16h281v-16h-9q-26 0 -44 -18t-18 -44v-544q0 -26 18 -44t44 -18h9v-16h-281v16h9q25 0 43 18t18 44v248h-341v-248q0 -26 18 -44
t44 -18h9v-16h-281z" />
    <glyph glyph-name="I" unicode="I" horiz-adv-x="333" 
d="M26 0v16h9q25 0 43 18t18 44v544q0 26 -18 44t-43 18h-9v16h281v-16h-9q-26 0 -44 -18t-18 -44v-544q0 -26 18 -44t44 -18h9v-16h-281z" />
    <glyph glyph-name="J" unicode="J" horiz-adv-x="327" 
d="M23 -76v16h9q25 0 43 18t18 44v620q0 26 -18 44t-43 18h-9v16h281v-16h-9q-26 0 -44 -18t-18 -44v-583q0 -48 -33.5 -81.5t-81.5 -33.5h-95z" />
    <glyph glyph-name="K" unicode="K" horiz-adv-x="632" 
d="M26 16h9q25 0 43 18t18 44v544q0 26 -18 44t-43 18h-9v16h281v-16h-9q-26 0 -44 -18t-18 -44v-278l241 317q6 7 2 15t-13 8h-26v16h125v-16h-13q-35 0 -60 -33l-216 -285h54q50 0 84.5 -29.5t61.5 -84.5l71 -142q3 -6 8 -18q15 -30 22 -42.5t18 -23t23 -10.5h9v-16h-101
q-32 0 -56 22.5t-47 66.5l-72 140q-5 11 -14 29.5t-13.5 27t-12.5 21t-15 18t-17 10.5t-22 6l-21 -27v-236q0 -26 18 -44t44 -18h9v-16h-281v16z" />
    <glyph glyph-name="L" unicode="L" horiz-adv-x="596" 
d="M26 0v16h9q25 0 43 18t18 44v544q0 26 -18 44t-43 18h-9v16h281v-16h-9q-26 0 -44 -18t-18 -44v-544q0 -26 18 -44t44 -18h138q43 0 64.5 12.5t46.5 56.5l25 44h15l-25 -109q-5 -20 -25 -20h-511z" />
    <glyph glyph-name="M" unicode="M" horiz-adv-x="847" 
d="M26 0v16h9q25 0 43 18t18 44v544q0 23 -19.5 42.5t-41.5 19.5h-9v16h82q51 0 84.5 -30t58.5 -85l186 -407l190 522h194v-16h-9q-25 0 -43.5 -18t-18.5 -44v-544q0 -26 18.5 -44t43.5 -18h9v-16h-281v16h9q25 0 43 18t18 44v530l-214 -592h-18l-265 586v-524q0 -26 18 -44
t43 -18h9v-16h-157z" />
    <glyph glyph-name="N" unicode="N" horiz-adv-x="680" 
d="M26 0v16h9q25 0 43 18t18 44v544q0 26 -16.5 44t-41.5 18h-9v16h89q48 0 77.5 -27.5t65.5 -87.5l306 -505v542q0 26 -18 44t-44 18h-9v16h157v-16h-9q-25 0 -43 -18t-18 -44v-544q0 -26 18 -44t43 -18h9v-16h-125q-32 0 -53.5 21t-49.5 68l-312 516v-527q0 -26 18 -44
t43 -18h9v-16h-157z" />
    <glyph glyph-name="O" unicode="O" 
d="M744 350q0 -99 -47.5 -183t-129 -133t-177.5 -49t-177.5 49t-129 133t-47.5 183t47.5 183t129 133t177.5 49t177.5 -49t129 -133t47.5 -183zM177 350q0 -95 28.5 -175.5t77.5 -127.5t107 -47t107 47t77.5 127.5t28.5 175.5t-28.5 175.5t-77.5 127.5t-107 47t-107 -47
t-77.5 -127.5t-28.5 -175.5z" />
    <glyph glyph-name="P" unicode="P" horiz-adv-x="611" 
d="M353 684h-55q-26 0 -44 -18t-18 -44v-280h117q38 0 65.5 25.5t40 63.5t12.5 82t-12.5 82t-40 63.5t-65.5 25.5zM26 0v16h9q25 0 43 18t18 44v544q0 26 -18 44t-43 18h-9v16h366q53 0 98.5 -23.5t71.5 -67.5q27 -44 27 -96t-27 -97q-26 -43 -71.5 -66.5t-98.5 -23.5h-156
v-248q0 -26 18 -44t44 -18h9v-16h-281z" />
    <glyph glyph-name="Q" unicode="Q" 
d="M218 145q29 -67 74.5 -106t97.5 -39q29 0 56 13q-6 6 -17.5 18.5t-19 21t-20 20.5t-21.5 20t-21.5 18t-23.5 16t-24.5 11.5t-26 8t-26.5 2.5t-28 -4zM542 20q42 -29 106 -26v-16q-106 -44 -181 16q-38 -9 -77 -9q-96 0 -177.5 49t-129 133t-47.5 183t47.5 183t129 133
t177.5 49t177.5 -49t129 -133t47.5 -183q0 -107 -55.5 -196t-146.5 -134zM212 158q21 10 40.5 15.5t35.5 8t33 -0.5t28.5 -5t27 -11.5t25 -15.5t25.5 -20t24 -22l26 -26l26 -26q46 47 73 125.5t27 169.5q0 95 -28.5 175.5t-77.5 127.5t-107 47t-107 -47t-77.5 -127.5
t-28.5 -175.5q0 -104 35 -192z" />
    <glyph glyph-name="R" unicode="R" horiz-adv-x="686" 
d="M349 684h-51q-26 0 -44 -18t-18 -44v-280h113q37 0 65 25.5t40 63.5t12 82t-12 82t-40 63.5t-65 25.5zM26 16h9q25 0 43 18t18 44v544q0 26 -18 44t-43 18h-9v16h361q53 0 98.5 -23.5t72.5 -67.5q26 -44 26 -96t-26 -97q-41 -67 -134 -82q100 0 142 -115l40 -109
q1 -2 2 -7q13 -35 19.5 -49.5t16.5 -26t24 -11.5h9v-16h-91q-69 0 -103 89l-42 108q-2 5 -5 14q-10 24 -14.5 36t-14 30t-18 26.5t-21 15.5t-27.5 7h-105v-248q0 -26 18 -44t44 -18h9v-16h-281v16z" />
    <glyph glyph-name="S" unicode="S" horiz-adv-x="631" 
d="M507 504l-5 -14l-24 12l14 34q9 28 7 49t-17.5 37.5t-35 27.5t-45 18.5t-47.5 11t-43 4.5q-45 2 -79 -13.5t-49 -39.5t-11 -54.5t30 -55.5q23 -22 64.5 -46.5t82 -44t84.5 -46t76.5 -53t53.5 -65.5t21 -84q-1 -47 -24 -84t-59.5 -59t-79.5 -33t-87 -11q-29 0 -66.5 4
t-82 13.5t-77.5 28.5t-38 45l-28 133h28l18 -34q82 -162 235 -167q54 -2 90 17.5t47 49t5 63.5t-29 63q-21 26 -61 52.5t-82.5 46.5t-88 46t-80.5 51.5t-58 61.5t-23 77q0 43 25 76t66 50t84 25t89 8q50 0 99 -10.5t74 -19t51 -4.5t47 29h25q-3 -5 -23.5 -44t-29 -56
t-22.5 -46.5t-21 -49.5z" />
    <glyph glyph-name="T" unicode="T" horiz-adv-x="666" 
d="M192 16h9q26 0 44 18t18 44v544q0 26 -18 44t-44 18h-44q-45 0 -67 -12t-45 -57l-22 -44h-15l23 109q2 9 9 14.5t16 5.5h554q9 0 16 -5.5t9 -14.5l22 -109h-15l-22 44q-22 45 -44 57t-67 12h-45q-25 0 -43 -18t-18 -44v-544q0 -26 18 -44t43 -18h9v-16h-281v16z" />
    <glyph glyph-name="U" unicode="U" horiz-adv-x="717" 
d="M611 230v392q0 26 -18 44t-43 18h-9v16h157v-16h-9q-25 0 -43 -18t-18 -44v-392q0 -76 -36.5 -130.5t-92.5 -79.5t-125 -25q-62 0 -113 18t-90.5 54t-61.5 96t-22 138v321q0 26 -18 44t-43 18h-9v16h281v-16h-9q-26 0 -44 -18t-18 -44v-392q0 -55 16.5 -97t43.5 -66
t61.5 -36t70.5 -9.5t70.5 18t61.5 41t43.5 64.5t16.5 85z" />
    <glyph glyph-name="V" unicode="V" horiz-adv-x="632" 
d="M75 635q-9 23 -27.5 36t-42.5 13h-6v16h88q101 0 144 -115l190 -507l103 355q15 47 13 92.5t-10.5 73.5t-17.5 57t-9 44h117q-27 -95 -87.5 -303.5t-92.5 -318.5q-7 -24 14 -43t47 -19h9v-16h-125q-70 0 -103 89q-13 35 -54.5 145t-149.5 401z" />
    <glyph glyph-name="W" unicode="W" horiz-adv-x="933" 
d="M-1 684v16h88q101 0 144 -115l190 -507l71 247l-116 310q-8 23 -27 36t-43 13h-5v16h88q100 0 143 -115l190 -507l104 355q15 47 13 92.5t-10.5 73.5t-18 57t-8.5 44h117q-28 -95 -88.5 -303.5t-91.5 -318.5q-7 -24 13.5 -43t47.5 -19h9v-16h-126q-70 0 -103 89l-79 211
l-64 -222q-7 -24 14 -43t47 -19h9v-16h-125q-70 0 -103 89l-204 546q-9 23 -27.5 36t-42.5 13h-6z" />
    <glyph glyph-name="X" unicode="X" horiz-adv-x="568" 
d="M5 684v16h88q50 0 83 -29.5t61 -85.5l88 -181l49 106q21 44 23.5 77t-6 47.5t-18.5 32.5t-10 33h117l-147 -312l158 -323q23 -49 70 -49h5v-16h-88q-50 0 -83 29.5t-60 85.5l-89 181l-102 -218q-17 -38 -13 -50t31 -12h15v-16h-141v16h15q24 0 44 18t32 44l111 235
l-157 322q-24 49 -70 49h-6z" />
    <glyph glyph-name="Y" unicode="Y" horiz-adv-x="529" 
d="M0 684v16h95q51 0 79.5 -24.5t53.5 -79.5l92 -204l103 230q16 38 12 50t-30 12h-15v16h140v-16h-15q-24 0 -44.5 -18t-31.5 -44l-111 -247v-297q0 -26 18 -44t44 -18h9v-16h-281v16h9q25 0 43 18t18 44v314l-112 243q-23 49 -70 49h-6z" />
    <glyph glyph-name="Y" unicode="&#x178;" horiz-adv-x="529" 
d="M0 684v16h95q51 0 79.5 -24.5t53.5 -79.5l92 -204l103 230q16 38 12 50t-30 12h-15v16h140v-16h-15q-24 0 -44.5 -18t-31.5 -44l-111 -247v-297q0 -26 18 -44t44 -18h9v-16h-281v16h9q25 0 43 18t18 44v314l-112 243q-23 49 -70 49h-6z" />
    <glyph glyph-name="Z" unicode="Z" horiz-adv-x="581" 
d="M115 700h227.5h227.5v-16h-5q-47 0 -70 -49l-254 -520q-36 -74 -79 -99h212q45 0 67 12t44 57l22 44h15l-22 -109q-2 -9 -9 -14.5t-16 -5.5h-466v16h6q46 0 70 49l254 520q35 74 79 99h-202q-45 0 -67 -12t-44 -57l-23 -44h-15l23 109q2 9 9 14.5t16 5.5z" />
    <glyph glyph-name="bracketleft" unicode="[" horiz-adv-x="314" 
d="M70 711h94.5h94.5v-64h-101v-589h101v-64h-189v717z" />
    <glyph glyph-name="backslash" unicode="\" horiz-adv-x="316" 
d="M265 145h-60l-156 556h61z" />
    <glyph glyph-name="bracketright" unicode="]" horiz-adv-x="314" 
d="M244 711v-717h-189v64h101v589h-101v64h189z" />
    <glyph glyph-name="asciicircum" unicode="^" horiz-adv-x="438" 
d="M188 700h61l147 -286h-99l-78 221l-78 -221h-100z" />
    <glyph glyph-name="underscore" unicode="_" horiz-adv-x="694" 
d="M37 0v88h620v-88h-620z" />
    <glyph glyph-name="grave" unicode="`" horiz-adv-x="182" 
d="M142 574h-32l-75 126h80z" />
    <glyph glyph-name="a" unicode="a" horiz-adv-x="667" 
d="M164 342h186l-105 280zM661 16h6v-16h-88q-101 0 -144 115l-79 211h-196l-72 -248q-18 -62 61 -62h9v-16h-157v16h15q23 0 35 16t20 46l158 544q7 24 -14 43t-47 19h-9v16h125q70 0 103 -89l204 -546q9 -23 27.5 -36t42.5 -13z" />
    <glyph glyph-name="a" unicode="&#xe5;" horiz-adv-x="667" 
d="M164 342h186l-105 280zM661 16h6v-16h-88q-101 0 -144 115l-79 211h-196l-72 -248q-18 -62 61 -62h9v-16h-157v16h15q23 0 35 16t20 46l158 544q7 24 -14 43t-47 19h-9v16h125q70 0 103 -89l204 -546q9 -23 27.5 -36t42.5 -13z" />
    <glyph glyph-name="a" unicode="&#xe4;" horiz-adv-x="667" 
d="M164 342h186l-105 280zM661 16h6v-16h-88q-101 0 -144 115l-79 211h-196l-72 -248q-18 -62 61 -62h9v-16h-157v16h15q23 0 35 16t20 46l158 544q7 24 -14 43t-47 19h-9v16h125q70 0 103 -89l204 -546q9 -23 27.5 -36t42.5 -13z" />
    <glyph glyph-name="a" unicode="&#xe3;" horiz-adv-x="667" 
d="M164 342h186l-105 280zM661 16h6v-16h-88q-101 0 -144 115l-79 211h-196l-72 -248q-18 -62 61 -62h9v-16h-157v16h15q23 0 35 16t20 46l158 544q7 24 -14 43t-47 19h-9v16h125q70 0 103 -89l204 -546q9 -23 27.5 -36t42.5 -13z" />
    <glyph glyph-name="a" unicode="&#xe2;" horiz-adv-x="667" 
d="M164 342h186l-105 280zM661 16h6v-16h-88q-101 0 -144 115l-79 211h-196l-72 -248q-18 -62 61 -62h9v-16h-157v16h15q23 0 35 16t20 46l158 544q7 24 -14 43t-47 19h-9v16h125q70 0 103 -89l204 -546q9 -23 27.5 -36t42.5 -13z" />
    <glyph glyph-name="a" unicode="&#xe1;" horiz-adv-x="667" 
d="M164 342h186l-105 280zM661 16h6v-16h-88q-101 0 -144 115l-79 211h-196l-72 -248q-18 -62 61 -62h9v-16h-157v16h15q23 0 35 16t20 46l158 544q7 24 -14 43t-47 19h-9v16h125q70 0 103 -89l204 -546q9 -23 27.5 -36t42.5 -13z" />
    <glyph glyph-name="a" unicode="&#xe0;" horiz-adv-x="667" 
d="M164 342h186l-105 280zM661 16h6v-16h-88q-101 0 -144 115l-79 211h-196l-72 -248q-18 -62 61 -62h9v-16h-157v16h15q23 0 35 16t20 46l158 544q7 24 -14 43t-47 19h-9v16h125q70 0 103 -89l204 -546q9 -23 27.5 -36t42.5 -13z" />
    <glyph glyph-name="b" unicode="b" horiz-adv-x="626" 
d="M338 358h-102v-280q0 -26 18 -44t44 -18h44q34 0 61.5 19t43 49t23.5 66.5t2 73t-20.5 66.5t-44 49t-69.5 19zM307 684h-9q-26 0 -44 -18t-18 -44v-248h71q40 0 71.5 17t47 44.5t22 60.5t-2 66t-24.5 60.5t-46.5 44.5t-67.5 17zM26 0v16h9q25 0 43 18t18 44v544
q0 26 -18 44t-43 18h-9v16h326q57 0 100 -21.5t64.5 -55t26.5 -74t-8.5 -77t-47.5 -66t-82 -40.5q110 -5 157 -82q27 -45 27 -97t-27 -96q-26 -44 -71.5 -67.5t-98.5 -23.5h-366z" />
    <glyph glyph-name="c" unicode="c" horiz-adv-x="668" 
d="M393 684q-93 0 -153 -85t-60 -242q0 -156 62.5 -243.5t155.5 -87.5q74 0 132.5 36.5t95.5 100.5l13 -7q-36 -71 -101.5 -113.5t-144.5 -42.5q-74 0 -138 22.5t-112.5 66t-76 112.5t-27.5 156t27.5 154t76.5 107.5t112 61t138 20.5q96 0 171 -33q10 -4 18.5 2t8.5 16v15
h14v-208h-14q-23 93 -75.5 142.5t-122.5 49.5z" />
    <glyph glyph-name="c" unicode="&#xe7;" horiz-adv-x="668" 
d="M393 684q-93 0 -153 -85t-60 -242q0 -156 62.5 -243.5t155.5 -87.5q74 0 132.5 36.5t95.5 100.5l13 -7q-36 -71 -101.5 -113.5t-144.5 -42.5q-74 0 -138 22.5t-112.5 66t-76 112.5t-27.5 156t27.5 154t76.5 107.5t112 61t138 20.5q96 0 171 -33q10 -4 18.5 2t8.5 16v15
h14v-208h-14q-23 93 -75.5 142.5t-122.5 49.5z" />
    <glyph glyph-name="d" unicode="d" horiz-adv-x="684" 
d="M307 0h-281v16h9q25 0 43 18t18 44v544q0 26 -18 44t-43 18h-9v16h281q81 0 147.5 -30t107 -79.5t63 -112t23 -128.5t-21.5 -128.5t-63 -112t-107.5 -79.5t-148.5 -30zM307 684h-9q-26 0 -44 -18t-18 -44v-544q0 -26 18 -44t44 -18h9q50 0 91 29t66 75.5t38.5 106.5
t13.5 123t-13.5 123t-38.5 106.5t-66 75.5t-91 29z" />
    <glyph glyph-name="e" unicode="e" horiz-adv-x="632" 
d="M26 0v16h9q25 0 43 18t18 44v544q0 26 -18 44t-43 18h-9v16h504q20 0 25 -20l26 -109h-15l-25 44q-26 44 -47 56.5t-65 12.5h-131q-26 0 -44 -18t-18 -44v-280h165q25 0 37 17t7 39l-8 37h15l54 -182h-16l-17 32q-21 41 -66 41h-171v-248q0 -26 18 -44t44 -18h157
q44 0 65 12.5t47 56.5l25 44h15l-26 -109q-5 -20 -25 -20h-530z" />
    <glyph glyph-name="e" unicode="&#xeb;" horiz-adv-x="632" 
d="M26 0v16h9q25 0 43 18t18 44v544q0 26 -18 44t-43 18h-9v16h504q20 0 25 -20l26 -109h-15l-25 44q-26 44 -47 56.5t-65 12.5h-131q-26 0 -44 -18t-18 -44v-280h165q25 0 37 17t7 39l-8 37h15l54 -182h-16l-17 32q-21 41 -66 41h-171v-248q0 -26 18 -44t44 -18h157
q44 0 65 12.5t47 56.5l25 44h15l-26 -109q-5 -20 -25 -20h-530z" />
    <glyph glyph-name="e" unicode="&#xea;" horiz-adv-x="632" 
d="M26 0v16h9q25 0 43 18t18 44v544q0 26 -18 44t-43 18h-9v16h504q20 0 25 -20l26 -109h-15l-25 44q-26 44 -47 56.5t-65 12.5h-131q-26 0 -44 -18t-18 -44v-280h165q25 0 37 17t7 39l-8 37h15l54 -182h-16l-17 32q-21 41 -66 41h-171v-248q0 -26 18 -44t44 -18h157
q44 0 65 12.5t47 56.5l25 44h15l-26 -109q-5 -20 -25 -20h-530z" />
    <glyph glyph-name="e" unicode="&#xe9;" horiz-adv-x="632" 
d="M26 0v16h9q25 0 43 18t18 44v544q0 26 -18 44t-43 18h-9v16h504q20 0 25 -20l26 -109h-15l-25 44q-26 44 -47 56.5t-65 12.5h-131q-26 0 -44 -18t-18 -44v-280h165q25 0 37 17t7 39l-8 37h15l54 -182h-16l-17 32q-21 41 -66 41h-171v-248q0 -26 18 -44t44 -18h157
q44 0 65 12.5t47 56.5l25 44h15l-26 -109q-5 -20 -25 -20h-530z" />
    <glyph glyph-name="e" unicode="&#xe8;" horiz-adv-x="632" 
d="M26 0v16h9q25 0 43 18t18 44v544q0 26 -18 44t-43 18h-9v16h504q20 0 25 -20l26 -109h-15l-25 44q-26 44 -47 56.5t-65 12.5h-131q-26 0 -44 -18t-18 -44v-280h165q25 0 37 17t7 39l-8 37h15l54 -182h-16l-17 32q-21 41 -66 41h-171v-248q0 -26 18 -44t44 -18h157
q44 0 65 12.5t47 56.5l25 44h15l-26 -109q-5 -20 -25 -20h-530z" />
    <glyph glyph-name="f" unicode="f" horiz-adv-x="596" 
d="M26 0v16h9q25 0 43 18t18 44v544q0 26 -18 44t-43 18h-9v16h504q20 0 25 -20l26 -109h-15l-25 44q-26 44 -47 56.5t-65 12.5h-131q-26 0 -44 -18t-18 -44v-280h165q25 0 37 17t7 39l-8 37h15l54 -182h-16l-17 32q-21 41 -66 41h-171v-248q0 -26 18 -44t44 -18h9v-16h-281
z" />
    <glyph glyph-name="g" unicode="g" horiz-adv-x="730" 
d="M495 45v219q0 26 -18 44t-43 18h-68v16h340v-16h-9q-26 0 -44 -18t-18 -44v-186q0 -26 18 -44t44 -18h9v-16h-172l-35 22q-51 -22 -106 -22q-74 0 -138 22.5t-112.5 66t-76 112.5t-27.5 156t27.5 154t76.5 107.5t112 61t138 20.5q106 0 181 -33q9 -4 18 2t9 16v15h14
v-208h-14q-23 92 -80 142t-128 50q-93 0 -153 -85t-60 -242q0 -156 62.5 -243.5t155.5 -87.5q52 0 97 19z" />
    <glyph glyph-name="h" unicode="h" horiz-adv-x="814" 
d="M26 0v16h9q25 0 43 18t18 44v544q0 26 -18 44t-43 18h-9v16h281v-16h-9q-26 0 -44 -18t-18 -44v-280h341v280q0 26 -18 44t-43 18h-9v16h281v-16h-9q-26 0 -44 -18t-18 -44v-544q0 -26 18 -44t44 -18h9v-16h-281v16h9q25 0 43 18t18 44v248h-341v-248q0 -26 18 -44
t44 -18h9v-16h-281z" />
    <glyph glyph-name="i" unicode="i" horiz-adv-x="333" 
d="M26 0v16h9q25 0 43 18t18 44v544q0 26 -18 44t-43 18h-9v16h281v-16h-9q-26 0 -44 -18t-18 -44v-544q0 -26 18 -44t44 -18h9v-16h-281z" />
    <glyph glyph-name="i" unicode="&#xef;" horiz-adv-x="333" 
d="M26 0v16h9q25 0 43 18t18 44v544q0 26 -18 44t-43 18h-9v16h281v-16h-9q-26 0 -44 -18t-18 -44v-544q0 -26 18 -44t44 -18h9v-16h-281z" />
    <glyph glyph-name="i" unicode="&#xee;" horiz-adv-x="333" 
d="M26 0v16h9q25 0 43 18t18 44v544q0 26 -18 44t-43 18h-9v16h281v-16h-9q-26 0 -44 -18t-18 -44v-544q0 -26 18 -44t44 -18h9v-16h-281z" />
    <glyph glyph-name="i" unicode="&#xed;" horiz-adv-x="333" 
d="M26 0v16h9q25 0 43 18t18 44v544q0 26 -18 44t-43 18h-9v16h281v-16h-9q-26 0 -44 -18t-18 -44v-544q0 -26 18 -44t44 -18h9v-16h-281z" />
    <glyph glyph-name="i" unicode="&#xec;" horiz-adv-x="333" 
d="M26 0v16h9q25 0 43 18t18 44v544q0 26 -18 44t-43 18h-9v16h281v-16h-9q-26 0 -44 -18t-18 -44v-544q0 -26 18 -44t44 -18h9v-16h-281z" />
    <glyph glyph-name="j" unicode="j" horiz-adv-x="327" 
d="M23 -76v16h9q25 0 43 18t18 44v620q0 26 -18 44t-43 18h-9v16h281v-16h-9q-26 0 -44 -18t-18 -44v-583q0 -48 -33.5 -81.5t-81.5 -33.5h-95z" />
    <glyph glyph-name="k" unicode="k" horiz-adv-x="632" 
d="M26 16h9q25 0 43 18t18 44v544q0 26 -18 44t-43 18h-9v16h281v-16h-9q-26 0 -44 -18t-18 -44v-278l241 317q6 7 2 15t-13 8h-26v16h125v-16h-13q-35 0 -60 -33l-216 -285h54q50 0 84.5 -29.5t61.5 -84.5l71 -142q3 -6 8 -18q15 -30 22 -42.5t18 -23t23 -10.5h9v-16h-101
q-32 0 -56 22.5t-47 66.5l-72 140q-5 11 -14 29.5t-13.5 27t-12.5 21t-15 18t-17 10.5t-22 6l-21 -27v-236q0 -26 18 -44t44 -18h9v-16h-281v16z" />
    <glyph glyph-name="l" unicode="l" horiz-adv-x="596" 
d="M26 0v16h9q25 0 43 18t18 44v544q0 26 -18 44t-43 18h-9v16h281v-16h-9q-26 0 -44 -18t-18 -44v-544q0 -26 18 -44t44 -18h138q43 0 64.5 12.5t46.5 56.5l25 44h15l-25 -109q-5 -20 -25 -20h-511z" />
    <glyph glyph-name="m" unicode="m" horiz-adv-x="847" 
d="M26 0v16h9q25 0 43 18t18 44v544q0 23 -19.5 42.5t-41.5 19.5h-9v16h82q51 0 84.5 -30t58.5 -85l186 -407l190 522h194v-16h-9q-25 0 -43.5 -18t-18.5 -44v-544q0 -26 18.5 -44t43.5 -18h9v-16h-281v16h9q25 0 43 18t18 44v530l-214 -592h-18l-265 586v-524q0 -26 18 -44
t43 -18h9v-16h-157z" />
    <glyph glyph-name="n" unicode="n" horiz-adv-x="680" 
d="M26 0v16h9q25 0 43 18t18 44v544q0 26 -16.5 44t-41.5 18h-9v16h89q48 0 77.5 -27.5t65.5 -87.5l306 -505v542q0 26 -18 44t-44 18h-9v16h157v-16h-9q-25 0 -43 -18t-18 -44v-544q0 -26 18 -44t43 -18h9v-16h-125q-32 0 -53.5 21t-49.5 68l-312 516v-527q0 -26 18 -44
t43 -18h9v-16h-157z" />
    <glyph glyph-name="n" unicode="&#xf1;" horiz-adv-x="680" 
d="M26 0v16h9q25 0 43 18t18 44v544q0 26 -16.5 44t-41.5 18h-9v16h89q48 0 77.5 -27.5t65.5 -87.5l306 -505v542q0 26 -18 44t-44 18h-9v16h157v-16h-9q-25 0 -43 -18t-18 -44v-544q0 -26 18 -44t43 -18h9v-16h-125q-32 0 -53.5 21t-49.5 68l-312 516v-527q0 -26 18 -44
t43 -18h9v-16h-157z" />
    <glyph glyph-name="o" unicode="o" 
d="M744 350q0 -99 -47.5 -183t-129 -133t-177.5 -49t-177.5 49t-129 133t-47.5 183t47.5 183t129 133t177.5 49t177.5 -49t129 -133t47.5 -183zM177 350q0 -95 28.5 -175.5t77.5 -127.5t107 -47t107 47t77.5 127.5t28.5 175.5t-28.5 175.5t-77.5 127.5t-107 47t-107 -47
t-77.5 -127.5t-28.5 -175.5z" />
    <glyph glyph-name="o" unicode="&#xf8;" 
d="M744 350q0 -99 -47.5 -183t-129 -133t-177.5 -49t-177.5 49t-129 133t-47.5 183t47.5 183t129 133t177.5 49t177.5 -49t129 -133t47.5 -183zM177 350q0 -95 28.5 -175.5t77.5 -127.5t107 -47t107 47t77.5 127.5t28.5 175.5t-28.5 175.5t-77.5 127.5t-107 47t-107 -47
t-77.5 -127.5t-28.5 -175.5z" />
    <glyph glyph-name="o" unicode="&#xf6;" 
d="M744 350q0 -99 -47.5 -183t-129 -133t-177.5 -49t-177.5 49t-129 133t-47.5 183t47.5 183t129 133t177.5 49t177.5 -49t129 -133t47.5 -183zM177 350q0 -95 28.5 -175.5t77.5 -127.5t107 -47t107 47t77.5 127.5t28.5 175.5t-28.5 175.5t-77.5 127.5t-107 47t-107 -47
t-77.5 -127.5t-28.5 -175.5z" />
    <glyph glyph-name="o" unicode="&#xf5;" 
d="M744 350q0 -99 -47.5 -183t-129 -133t-177.5 -49t-177.5 49t-129 133t-47.5 183t47.5 183t129 133t177.5 49t177.5 -49t129 -133t47.5 -183zM177 350q0 -95 28.5 -175.5t77.5 -127.5t107 -47t107 47t77.5 127.5t28.5 175.5t-28.5 175.5t-77.5 127.5t-107 47t-107 -47
t-77.5 -127.5t-28.5 -175.5z" />
    <glyph glyph-name="o" unicode="&#xf4;" 
d="M744 350q0 -99 -47.5 -183t-129 -133t-177.5 -49t-177.5 49t-129 133t-47.5 183t47.5 183t129 133t177.5 49t177.5 -49t129 -133t47.5 -183zM177 350q0 -95 28.5 -175.5t77.5 -127.5t107 -47t107 47t77.5 127.5t28.5 175.5t-28.5 175.5t-77.5 127.5t-107 47t-107 -47
t-77.5 -127.5t-28.5 -175.5z" />
    <glyph glyph-name="o" unicode="&#xf3;" 
d="M744 350q0 -99 -47.5 -183t-129 -133t-177.5 -49t-177.5 49t-129 133t-47.5 183t47.5 183t129 133t177.5 49t177.5 -49t129 -133t47.5 -183zM177 350q0 -95 28.5 -175.5t77.5 -127.5t107 -47t107 47t77.5 127.5t28.5 175.5t-28.5 175.5t-77.5 127.5t-107 47t-107 -47
t-77.5 -127.5t-28.5 -175.5z" />
    <glyph glyph-name="o" unicode="&#xf2;" 
d="M744 350q0 -99 -47.5 -183t-129 -133t-177.5 -49t-177.5 49t-129 133t-47.5 183t47.5 183t129 133t177.5 49t177.5 -49t129 -133t47.5 -183zM177 350q0 -95 28.5 -175.5t77.5 -127.5t107 -47t107 47t77.5 127.5t28.5 175.5t-28.5 175.5t-77.5 127.5t-107 47t-107 -47
t-77.5 -127.5t-28.5 -175.5z" />
    <glyph glyph-name="p" unicode="p" horiz-adv-x="611" 
d="M353 684h-55q-26 0 -44 -18t-18 -44v-280h117q38 0 65.5 25.5t40 63.5t12.5 82t-12.5 82t-40 63.5t-65.5 25.5zM26 0v16h9q25 0 43 18t18 44v544q0 26 -18 44t-43 18h-9v16h366q53 0 98.5 -23.5t71.5 -67.5q27 -44 27 -96t-27 -97q-26 -43 -71.5 -66.5t-98.5 -23.5h-156
v-248q0 -26 18 -44t44 -18h9v-16h-281z" />
    <glyph glyph-name="q" unicode="q" 
d="M218 145q29 -67 74.5 -106t97.5 -39q29 0 56 13q-6 6 -17.5 18.5t-19 21t-20 20.5t-21.5 20t-21.5 18t-23.5 16t-24.5 11.5t-26 8t-26.5 2.5t-28 -4zM542 20q42 -29 106 -26v-16q-106 -44 -181 16q-38 -9 -77 -9q-96 0 -177.5 49t-129 133t-47.5 183t47.5 183t129 133
t177.5 49t177.5 -49t129 -133t47.5 -183q0 -107 -55.5 -196t-146.5 -134zM212 158q21 10 40.5 15.5t35.5 8t33 -0.5t28.5 -5t27 -11.5t25 -15.5t25.5 -20t24 -22l26 -26l26 -26q46 47 73 125.5t27 169.5q0 95 -28.5 175.5t-77.5 127.5t-107 47t-107 -47t-77.5 -127.5
t-28.5 -175.5q0 -104 35 -192z" />
    <glyph glyph-name="r" unicode="r" horiz-adv-x="686" 
d="M349 684h-51q-26 0 -44 -18t-18 -44v-280h113q37 0 65 25.5t40 63.5t12 82t-12 82t-40 63.5t-65 25.5zM26 16h9q25 0 43 18t18 44v544q0 26 -18 44t-43 18h-9v16h361q53 0 98.5 -23.5t72.5 -67.5q26 -44 26 -96t-26 -97q-41 -67 -134 -82q100 0 142 -115l40 -109
q1 -2 2 -7q13 -35 19.5 -49.5t16.5 -26t24 -11.5h9v-16h-91q-69 0 -103 89l-42 108q-2 5 -5 14q-10 24 -14.5 36t-14 30t-18 26.5t-21 15.5t-27.5 7h-105v-248q0 -26 18 -44t44 -18h9v-16h-281v16z" />
    <glyph glyph-name="s" unicode="s" horiz-adv-x="631" 
d="M507 504l-5 -14l-24 12l14 34q9 28 7 49t-17.5 37.5t-35 27.5t-45 18.5t-47.5 11t-43 4.5q-45 2 -79 -13.5t-49 -39.5t-11 -54.5t30 -55.5q23 -22 64.5 -46.5t82 -44t84.5 -46t76.5 -53t53.5 -65.5t21 -84q-1 -47 -24 -84t-59.5 -59t-79.5 -33t-87 -11q-29 0 -66.5 4
t-82 13.5t-77.5 28.5t-38 45l-28 133h28l18 -34q82 -162 235 -167q54 -2 90 17.5t47 49t5 63.5t-29 63q-21 26 -61 52.5t-82.5 46.5t-88 46t-80.5 51.5t-58 61.5t-23 77q0 43 25 76t66 50t84 25t89 8q50 0 99 -10.5t74 -19t51 -4.5t47 29h25q-3 -5 -23.5 -44t-29 -56
t-22.5 -46.5t-21 -49.5z" />
    <glyph glyph-name="t" unicode="t" horiz-adv-x="666" 
d="M192 16h9q26 0 44 18t18 44v544q0 26 -18 44t-44 18h-44q-45 0 -67 -12t-45 -57l-22 -44h-15l23 109q2 9 9 14.5t16 5.5h554q9 0 16 -5.5t9 -14.5l22 -109h-15l-22 44q-22 45 -44 57t-67 12h-45q-25 0 -43 -18t-18 -44v-544q0 -26 18 -44t43 -18h9v-16h-281v16z" />
    <glyph glyph-name="u" unicode="u" horiz-adv-x="717" 
d="M611 230v392q0 26 -18 44t-43 18h-9v16h157v-16h-9q-25 0 -43 -18t-18 -44v-392q0 -76 -36.5 -130.5t-92.5 -79.5t-125 -25q-62 0 -113 18t-90.5 54t-61.5 96t-22 138v321q0 26 -18 44t-43 18h-9v16h281v-16h-9q-26 0 -44 -18t-18 -44v-392q0 -55 16.5 -97t43.5 -66
t61.5 -36t70.5 -9.5t70.5 18t61.5 41t43.5 64.5t16.5 85z" />
    <glyph glyph-name="u" unicode="&#xfc;" horiz-adv-x="717" 
d="M611 230v392q0 26 -18 44t-43 18h-9v16h157v-16h-9q-25 0 -43 -18t-18 -44v-392q0 -76 -36.5 -130.5t-92.5 -79.5t-125 -25q-62 0 -113 18t-90.5 54t-61.5 96t-22 138v321q0 26 -18 44t-43 18h-9v16h281v-16h-9q-26 0 -44 -18t-18 -44v-392q0 -55 16.5 -97t43.5 -66
t61.5 -36t70.5 -9.5t70.5 18t61.5 41t43.5 64.5t16.5 85z" />
    <glyph glyph-name="u" unicode="&#xfb;" horiz-adv-x="717" 
d="M611 230v392q0 26 -18 44t-43 18h-9v16h157v-16h-9q-25 0 -43 -18t-18 -44v-392q0 -76 -36.5 -130.5t-92.5 -79.5t-125 -25q-62 0 -113 18t-90.5 54t-61.5 96t-22 138v321q0 26 -18 44t-43 18h-9v16h281v-16h-9q-26 0 -44 -18t-18 -44v-392q0 -55 16.5 -97t43.5 -66
t61.5 -36t70.5 -9.5t70.5 18t61.5 41t43.5 64.5t16.5 85z" />
    <glyph glyph-name="u" unicode="&#xfa;" horiz-adv-x="717" 
d="M611 230v392q0 26 -18 44t-43 18h-9v16h157v-16h-9q-25 0 -43 -18t-18 -44v-392q0 -76 -36.5 -130.5t-92.5 -79.5t-125 -25q-62 0 -113 18t-90.5 54t-61.5 96t-22 138v321q0 26 -18 44t-43 18h-9v16h281v-16h-9q-26 0 -44 -18t-18 -44v-392q0 -55 16.5 -97t43.5 -66
t61.5 -36t70.5 -9.5t70.5 18t61.5 41t43.5 64.5t16.5 85z" />
    <glyph glyph-name="u" unicode="&#xf9;" horiz-adv-x="717" 
d="M611 230v392q0 26 -18 44t-43 18h-9v16h157v-16h-9q-25 0 -43 -18t-18 -44v-392q0 -76 -36.5 -130.5t-92.5 -79.5t-125 -25q-62 0 -113 18t-90.5 54t-61.5 96t-22 138v321q0 26 -18 44t-43 18h-9v16h281v-16h-9q-26 0 -44 -18t-18 -44v-392q0 -55 16.5 -97t43.5 -66
t61.5 -36t70.5 -9.5t70.5 18t61.5 41t43.5 64.5t16.5 85z" />
    <glyph glyph-name="v" unicode="v" horiz-adv-x="632" 
d="M75 635q-9 23 -27.5 36t-42.5 13h-6v16h88q101 0 144 -115l190 -507l103 355q15 47 13 92.5t-10.5 73.5t-17.5 57t-9 44h117q-27 -95 -87.5 -303.5t-92.5 -318.5q-7 -24 14 -43t47 -19h9v-16h-125q-70 0 -103 89q-13 35 -54.5 145t-149.5 401z" />
    <glyph glyph-name="w" unicode="w" horiz-adv-x="933" 
d="M-1 684v16h88q101 0 144 -115l190 -507l71 247l-116 310q-8 23 -27 36t-43 13h-5v16h88q100 0 143 -115l190 -507l104 355q15 47 13 92.5t-10.5 73.5t-18 57t-8.5 44h117q-28 -95 -88.5 -303.5t-91.5 -318.5q-7 -24 13.5 -43t47.5 -19h9v-16h-126q-70 0 -103 89l-79 211
l-64 -222q-7 -24 14 -43t47 -19h9v-16h-125q-70 0 -103 89l-204 546q-9 23 -27.5 36t-42.5 13h-6z" />
    <glyph glyph-name="x" unicode="x" horiz-adv-x="568" 
d="M5 684v16h88q50 0 83 -29.5t61 -85.5l88 -181l49 106q21 44 23.5 77t-6 47.5t-18.5 32.5t-10 33h117l-147 -312l158 -323q23 -49 70 -49h5v-16h-88q-50 0 -83 29.5t-60 85.5l-89 181l-102 -218q-17 -38 -13 -50t31 -12h15v-16h-141v16h15q24 0 44 18t32 44l111 235
l-157 322q-24 49 -70 49h-6z" />
    <glyph glyph-name="y" unicode="y" horiz-adv-x="529" 
d="M0 684v16h95q51 0 79.5 -24.5t53.5 -79.5l92 -204l103 230q16 38 12 50t-30 12h-15v16h140v-16h-15q-24 0 -44.5 -18t-31.5 -44l-111 -247v-297q0 -26 18 -44t44 -18h9v-16h-281v16h9q25 0 43 18t18 44v314l-112 243q-23 49 -70 49h-6z" />
    <glyph glyph-name="y" unicode="&#xff;" horiz-adv-x="529" 
d="M0 684v16h95q51 0 79.5 -24.5t53.5 -79.5l92 -204l103 230q16 38 12 50t-30 12h-15v16h140v-16h-15q-24 0 -44.5 -18t-31.5 -44l-111 -247v-297q0 -26 18 -44t44 -18h9v-16h-281v16h9q25 0 43 18t18 44v314l-112 243q-23 49 -70 49h-6z" />
    <glyph glyph-name="y" unicode="&#xfd;" horiz-adv-x="529" 
d="M0 684v16h95q51 0 79.5 -24.5t53.5 -79.5l92 -204l103 230q16 38 12 50t-30 12h-15v16h140v-16h-15q-24 0 -44.5 -18t-31.5 -44l-111 -247v-297q0 -26 18 -44t44 -18h9v-16h-281v16h9q25 0 43 18t18 44v314l-112 243q-23 49 -70 49h-6z" />
    <glyph glyph-name="z" unicode="z" horiz-adv-x="581" 
d="M115 700h227.5h227.5v-16h-5q-47 0 -70 -49l-254 -520q-36 -74 -79 -99h212q45 0 67 12t44 57l22 44h15l-22 -109q-2 -9 -9 -14.5t-16 -5.5h-466v16h6q46 0 70 49l254 520q35 74 79 99h-202q-45 0 -67 -12t-44 -57l-23 -44h-15l23 109q2 9 9 14.5t16 5.5z" />
    <glyph glyph-name="braceleft" unicode="{" horiz-adv-x="322" 
d="M145 352q27 -18 39.5 -53.5t12 -68t-2.5 -78t0 -67.5q4 -41 20 -61t55 -20v-13q-92 0 -120 38q-13 19 -17 57.5t-3 78t-2 77.5t-20 62t-52 25v47q28 1 45.5 19.5t22.5 46.5t7 61t0 62.5t1 51.5q3 31 13.5 51.5t30.5 30t41 12.5t53 3v-13q-39 0 -55 -20t-20 -61
q-2 -23 0 -68.5t2 -78t-12 -67.5t-39 -54z" />
    <glyph glyph-name="verticalbar" unicode="|" horiz-adv-x="206" 
d="M135 -2h-65v703h65v-703z" />
    <glyph glyph-name="braceright" unicode="}" horiz-adv-x="322" 
d="M177 352q-27 19 -39.5 54t-12 67.5t2 78t-0.5 68.5q-3 41 -19 61t-55 20v13q32 0 53 -3t40.5 -12.5t30.5 -30t14 -51.5q3 -22 1 -51.5t0 -62.5t7 -61t22.5 -46.5t45.5 -19.5v-47q-35 -1 -52 -25t-20 -62t-2 -77.5t-3 -78t-18 -57.5q-27 -38 -119 -38v13q39 0 55 20t19 61
q2 22 0.5 67.5t-2 78t12 68t39.5 53.5z" />
    <glyph glyph-name="asciitilde" unicode="~" horiz-adv-x="452" 
d="M41 276q12 52 33.5 82.5t48 39.5t57 9.5t62.5 -4t62 -5.5t58.5 11t48.5 39q-10 -51 -32 -80.5t-49.5 -39t-59.5 -10t-65.5 3.5t-63.5 4.5t-57 -11.5t-43 -39z" />
    <glyph glyph-name="nonbreakingspace" unicode="&#xa0;" horiz-adv-x="355" 
 />
    <glyph glyph-name="exclamdown" unicode="&#xa1;" horiz-adv-x="230" 
d="M78 481v111h74v-111h-74zM58 -117l20 544h74l20 -544h-114z" />
    <glyph glyph-name="cent" unicode="&#xa2;" horiz-adv-x="497" 
d="M183 210l80 277h-9q-30 0 -55.5 -16.5t-38.5 -51.5q-13 -36 -13 -83q0 -50 12 -85q9 -25 24 -41zM346 407q-8 34 -26 54l-81 -278q7 -2 14 -2q38 0 65 26q28 26 34 73l1 8l86 -10l-2 -8q-13 -76 -64 -119t-119 -43q-17 0 -35 4l-46 -155l-59 17l46 157q-43 23 -71 72
q-30 51 -30 129q0 71 24 122q23 53 71 79q47 26 97 26q13 0 33 -2l45 153l58 -17l-44 -153q36 -17 56 -45q22 -30 31 -74l1 -8l-83 -13z" />
    <glyph glyph-name="sterling" unicode="&#xa3;" horiz-adv-x="636" 
d="M234 366h176v-76h-155q14 -94 -40 -180q46 2 112 -16q6 -2 31.5 -9.5t37.5 -10t31.5 -5.5t35.5 -2q36 2 66 24l22 17l31 -88l-17 -7q-67 -29 -108.5 -30.5t-110.5 21.5q-61 21 -114 18t-107 -39l-21 -13l-46 116l15 9q54 29 78 82t12 113h-93v76h72q-8 26 -13 48
q-12 51 -12 80q0 81 48 135.5t127 68.5q100 17 172 -34.5t81 -152.5l1 -18l-84 -13l-2 21q-6 63 -46 94.5t-102 20.5t-86 -50q-41 -64 8 -200z" />
    <glyph glyph-name="currency" unicode="&#xa4;" horiz-adv-x="547" 
d="M168 350q0 -43 31 -74t74 -31t74 31t31 74q0 44 -30.5 74.5t-74.5 30.5q-43 0 -74 -30.5t-31 -74.5zM54 191l60 59q-28 47 -28 100t28 100l-60 59l58 61l61 -61q45 29 100 29q56 0 101 -29l60 61l59 -61l-61 -59q29 -47 29 -100t-29 -100l61 -59l-59 -61l-60 62
q-45 -30 -101 -30q-55 0 -100 30l-61 -62z" />
    <glyph glyph-name="yen" unicode="&#xa5;" horiz-adv-x="633" 
d="M51 684v16h95q51 0 79.5 -24.5t53.5 -79.5l78 -173h28l89 199q16 38 12 50t-30 12h-15v16h140v-16h-15q-24 0 -44.5 -18t-31.5 -44l-89 -199h132v-50h-154v-60h154v-49h-154v-186q0 -26 18 -44t44 -18h9v-16h-281v16h9q25 0 43 18t18 44v186h-140v49h140v60h-140v50h126
l-98 212q-23 49 -70 49h-6z" />
    <glyph glyph-name="brokenbar" unicode="&#xa6;" horiz-adv-x="202" 
d="M133 -96h-65v405h65v-405zM133 370h-65v330h65v-330z" />
    <glyph glyph-name="section" unicode="&#xa7;" horiz-adv-x="553" 
d="M331 181q32 10 47 35t10.5 53.5t-23.5 52.5q-26 31 -100 70q-33 1 -58.5 -11t-36.5 -30.5t-7.5 -41.5t23.5 -42q11 -11 30 -23.5t33 -20t42.5 -22.5t39.5 -20zM492 696q-62 -119 -73 -150l-4 -11l-18 9l10 27q12 25 4.5 43.5t-21.5 31.5t-37.5 21t-44 12t-39.5 5
q-34 2 -60.5 -10t-38 -30.5t-8.5 -42t24 -42.5q20 -20 60 -42t78 -41.5t74.5 -43.5t58 -58t21.5 -75q-1 -51 -34.5 -85t-85.5 -48q57 -33 88.5 -70t31.5 -89q-1 -47 -31 -80.5t-72 -48t-89 -14.5q-31 1 -71 6t-82.5 21.5t-48.5 42.5l-21 102h22l13 -26q63 -124 180 -128
q55 -1 84 24t28 59.5t-25 64.5q-19 23 -58.5 46.5t-79 43.5t-77.5 43t-62 54.5t-24 68.5q0 30 15 53t41 37t55 21.5t62 9.5q-35 18 -52 27t-44.5 27.5t-41 33.5t-24.5 37t-11 46q0 33 19 58t50.5 38.5t64.5 19.5t68 6q38 0 75.5 -8t57 -14.5t39.5 -3.5t36 22h18z" />
    <glyph glyph-name="dieresis" unicode="&#xa8;" horiz-adv-x="347" 
d="M226 600v100h82v-100h-82zM39 600v100h82v-100h-82z" />
    <glyph glyph-name="copyright" unicode="&#xa9;" 
d="M608.5 560.5q-90.5 90.5 -218.5 90.5t-219 -90.5t-91 -218.5t91 -219t219 -91t218.5 91t90.5 219t-90.5 218.5zM462.5 229.5q29.5 22.5 38.5 61.5l54 -16q-13 -54 -55 -86q-43 -33 -103 -33q-76 0 -124 49.5t-48 137.5q0 57 22 99q21 42 62 64q40 22 91 22q58 0 96.5 -28
t52.5 -76l-52 -13q-13 33 -38 50q-26 18 -60 18q-50 0 -82.5 -35.5t-32.5 -102t30.5 -100.5t79.5 -34q39 0 68.5 22.5zM156 576q46 46 106.5 71.5t127.5 25.5t127.5 -25.5t106.5 -71.5t71.5 -106.5t25.5 -127.5t-25.5 -127.5t-71.5 -106.5t-106.5 -71.5t-127.5 -25.5
t-127.5 25.5t-106.5 71.5t-71.5 106.5t-25.5 127.5t25.5 127.5t71.5 106.5z" />
    <glyph glyph-name="ordfeminine" unicode="&#xaa;" horiz-adv-x="374" 
d="M239 550q-20 -5 -74 -14q-35 -6 -45 -15q-11 -10 -11 -25q0 -16 13 -27t37 -11q29 0 49 15q15 10 22 23t8 23t1 31zM224 416q12 0 17 6t4 23q-47 -34 -99 -34q-44 0 -69.5 23.5t-25.5 61.5q0 18 6 32t19 25q12 11 31 18q13 4 39 8l57 9q30 6 37 7q0 27 -5 36.5t-19 16.5
t-37 7q-31 0 -46 -13q-24 -20 13 -58l-1 -3l-84 39q5 34 34.5 57t84.5 23q63 0 90 -24q26 -25 26 -72v-96l-1 -24v-12v-14t0.5 -12.5t2.5 -12t4.5 -8.5t7.5 -7t12 -2h4v-5h-102v5z" />
    <glyph glyph-name="guillemotleft" unicode="&#xab;" horiz-adv-x="481" 
d="M432 366l-107 -183l107 -183h-83l-127 183l127 183h83zM257 366l-105 -183l104 -183h-80l-129 183l129 183h81z" />
    <glyph glyph-name="logicalnot" unicode="&#xac;" horiz-adv-x="583" 
d="M446 347h-402v89h491v-202h-89v113z" />
    <glyph glyph-name="softhyphen" unicode="&#xad;" horiz-adv-x="0" 
 />
    <glyph glyph-name="registered" unicode="&#xae;" 
d="M299 470v-106h69q49 0 67.5 14.5t18.5 39.5q0 15 -9 27.5t-24 18.5q-16 6 -57 6h-65zM699 342q0 128 -90.5 218.5t-218.5 90.5t-219 -90.5t-91 -218.5t91 -219t219 -91t218.5 91t90.5 219zM156 576q46 46 106.5 71.5t127.5 25.5t127.5 -25.5t106.5 -71.5t71.5 -106.5
t25.5 -127.5t-25.5 -127.5t-71.5 -106.5t-106.5 -71.5t-127.5 -25.5t-127.5 25.5t-106.5 71.5t-71.5 106.5t-25.5 127.5t25.5 127.5t71.5 106.5zM242 166v352h121q62 0 90 -10t44.5 -34t16.5 -52q0 -38 -28 -67q-27 -28 -73 -32q19 -8 30 -18q21 -21 52 -70l43 -69h-69
l-31 55q-37 66 -60 82q-16 12 -46 12h-33v-149h-57z" />
    <glyph glyph-name="overscore" unicode="&#xaf;" horiz-adv-x="631" 
d="M70 701v88h491v-88h-491z" />
    <glyph glyph-name="degree" unicode="&#xb0;" horiz-adv-x="334" 
d="M230.5 644.5q-26.5 26.5 -63.5 26.5t-63.5 -26.5t-26.5 -63.5t26.5 -63.5t63.5 -26.5t63.5 26.5t26.5 63.5t-26.5 63.5zM83 665q35 35 84 35t84 -35t35 -84t-35 -84t-84 -35t-84 35t-35 84t35 84z" />
    <glyph glyph-name="plusminus" unicode="&#xb1;" horiz-adv-x="603" 
d="M56 0v88h491v-88h-491zM257 314h-201v89h201v201h89v-201h201v-89h-201v-201h-89v201z" />
    <glyph glyph-name="twosuperior" unicode="&#xb2;" horiz-adv-x="326" 
d="M105 587l-55 32q16 38 48.5 59.5t73.5 21.5q50 0 76 -22.5t26 -51.5q0 -31 -28 -60t-62 -47.5t-69 -42t-45 -42.5h134q15 0 21 1t13 6.5t14 19.5l8 14h7l-14 -73q-2 -9 -11 -9h-184v30q0 23 15 45.5t37.5 41t45.5 36.5t41.5 39.5t23.5 41.5q6 25 -5.5 45.5t-43.5 20.5
q-39 0 -61 -33t-6 -73z" />
    <glyph glyph-name="threesuperior" unicode="&#xb3;" horiz-adv-x="349" 
d="M51 473l61 33q-18 -42 6 -76.5t68 -34.5q29 0 46 22.5t17 53.5q0 42 -27 70.5t-69 36.5v7h39l74 74h-153q-15 0 -21 -1t-13 -6.5t-14 -19.5l-8 -14h-7l14 73q2 9 11 9h203v-41l-75 -75q98 -28 94 -114q-1 -32 -29 -57t-82 -25q-46 0 -81.5 22.5t-53.5 62.5z" />
    <glyph glyph-name="acute" unicode="&#xb4;" horiz-adv-x="319" 
d="M86 473h-46l111 227h134z" />
    <glyph glyph-name="mu" unicode="&#xb5;" horiz-adv-x="460" 
d="M318 1v25q-10 -11 -21 -17q-28 -16 -66 -16q-33 0 -59 13q-11 6 -23 16v-171h-89v564h89v-176q0 -45 3 -74q2 -27 6 -39q9 -23 27.5 -36.5t42.5 -13.5q26 0 47 14q20 14 28 36q4 12 7 39q2 28 2 72v178h88v-414h-82z" />
    <glyph glyph-name="paragraph" unicode="&#xb6;" horiz-adv-x="451" 
d="M167 -150v593q-50 6 -80 37q-34 35 -34 89q0 59 38 95q37 36 108 36h191v-72h-41v-778h-71v778h-40v-778h-71z" />
    <glyph glyph-name="periodcentered" unicode="&#xb7;" horiz-adv-x="161" 
d="M121 300h-82v100h82v-100z" />
    <glyph glyph-name="cedilla" unicode="&#xb8;" horiz-adv-x="92" 
d="M65 27l-19 -30q12 -3 25 -11q27 -18 33 -43t-11 -52t-43.5 -33t-53.5 11q-28 19 -25 54l1 7l17 -1v-7q-1 -24 17 -36q3 -1 5 -2q10 -4 22 2q14 8 26 26q23 36 7 54q-2 2 -5 4q-17 12 -38 -8l-4 -4l-14 8l45 71z" />
    <glyph glyph-name="onesuperior" unicode="&#xb9;" horiz-adv-x="218" 
d="M50 401v7h4q10 0 18 7.5t8 18.5v200q0 11 -8 18.5t-18 7.5h-4v7q17 0 47 15.5t35 17.5h6v-266q0 -11 8 -18.5t18 -7.5h4v-7h-118z" />
    <glyph glyph-name="ordmasculine" unicode="&#xba;" horiz-adv-x="400" 
d="M349 546.5q0 -63.5 -43.5 -108.5t-105.5 -45t-105.5 45t-43.5 108.5t43.5 108.5t105.5 45t105.5 -45t43.5 -108.5zM110 546.5q0 -60.5 26.5 -104t63.5 -43.5t63 43.5t26 104t-26 103.5t-63 43t-63.5 -43t-26.5 -103.5z" />
    <glyph glyph-name="guillemotright" unicode="&#xbb;" horiz-adv-x="481" 
d="M155 183l-107 183h83l127 -183l-127 -183h-83zM328 183l-105 183h81l129 -183l-129 -183h-80z" />
    <glyph glyph-name="onequarter" unicode="&#xbc;" horiz-adv-x="539" 
d="M57 401v7h4q10 0 18 7.5t8 18.5v200q0 11 -8 18.5t-18 7.5h-4v7q17 0 47 15.5t35 17.5h6v-266q0 -11 8 -18.5t18 -7.5h4v-7h-118zM432 294q-53 -103 -160 -195h111v62l60 60v-120q14 4 27 27l11 19h6l-11 -47q-2 -8 -10 -8h-23v-63q0 -11 7.5 -19t18.5 -8h4v-7h-120v7h4
q11 0 18.5 8t7.5 19v63h-122v7q81 96 96 195h75zM316 705h68q-24 -86 -63 -225.5t-73 -259.5t-63 -225h-68q34 119 100 355t99 355z" />
    <glyph glyph-name="onehalf" unicode="&#xbd;" horiz-adv-x="586" 
d="M56 401v7h4q10 0 18 7.5t8 18.5v200q0 11 -8 18.5t-18 7.5h-4v7q17 0 47 15.5t35 17.5h6v-266q0 -11 8 -18.5t18 -7.5h4v-7h-118zM364 189l-56 32q17 39 49 60t74 21q49 0 75 -22.5t26 -51.5q0 -31 -27.5 -60t-62 -47.5t-69 -41.5t-44.5 -42h134q14 0 20 0.5t13 6.5
t15 19l8 15h6l-14 -74q-2 -9 -11 -9h-184v30q0 23 15 45.5t37.5 41t45.5 36.5t41.5 39.5t23.5 42.5q6 25 -5.5 45.5t-42.5 20.5q-40 0 -62 -33t-5 -74zM323 705h68q-24 -86 -63 -225.5t-73 -259.5t-63 -225h-68q33 119 99.5 355t99.5 355z" />
    <glyph glyph-name="threequarters" unicode="&#xbe;" horiz-adv-x="644" 
d="M378 99h111v62l59 60v-120q15 4 28 27l10 19h7l-11 -47q-2 -8 -11 -8h-23v-63q0 -11 8 -19t19 -8h3v-7h-119v7h3q11 0 19 8t8 19v63h-122v7q81 96 96 195h75q-53 -103 -160 -195zM53 473l61 33q-18 -42 6 -76.5t68 -34.5q29 0 46 22.5t17 53.5q0 42 -27 70.5t-69 36.5v7
h39l74 74h-153q-15 0 -21 -1t-13 -6.5t-14 -19.5l-8 -14h-7l14 73q2 9 11 9h203v-41l-75 -75q98 -28 94 -114q-1 -32 -29 -57t-82 -25q-46 0 -81.5 22.5t-53.5 62.5zM424 705h68q-35 -125 -101.5 -362t-97.5 -348h-67q33 119 99 355t99 355z" />
    <glyph glyph-name="questiondown" unicode="&#xbf;" horiz-adv-x="635" 
d="M351 592v-57h-55v57h55zM175 65q-13 -83 36 -149q39 -53 113 -53q73 0 112 53q50 66 36 149l126 -46q-4 -46 -30.5 -81t-66.5 -54t-84.5 -28.5t-92.5 -8.5q-43 -1 -83 6t-77.5 23.5t-64.5 40.5t-41 62.5t-9 85.5q4 34 19.5 64.5t37.5 53.5t48 46t51 47.5t45.5 52t33 65.5
t12.5 82h55q0 -40 -6 -76t-13.5 -59.5t-23.5 -51t-26 -41t-31 -40t-29 -37.5q-37 -49 -47 -106z" />
    <glyph glyph-name="Agrave" unicode="&#xc0;" horiz-adv-x="669" 
d="M165 342h186l-105 280zM318 779h-34l-154 125l57 78zM662 16h6v-16h-88q-101 0 -144 115l-79 211h-196l-72 -248q-4 -20 -2 -32t14 -18.5t23 -9t26 -2.5h9v-16h-157v16h15q23 0 35 16t20 46l158 544q7 24 -14 43t-47 19h-9v16h125q70 0 103 -89l204 -546q9 -23 27.5 -36
t42.5 -13z" />
    <glyph glyph-name="Aacute" unicode="&#xc1;" horiz-adv-x="667" 
d="M164 342h186l-105 280zM260 779h-34l131 203l57 -78zM661 16h6v-16h-88q-101 0 -144 115l-79 211h-196l-72 -248q-4 -20 -2 -32t14 -18.5t23 -9t26 -2.5h9v-16h-157v16h15q23 0 35 16t20 46l158 544q7 24 -14 43t-47 19h-9v16h125q70 0 103 -89l204 -546q9 -23 27.5 -36
t42.5 -13z" />
    <glyph glyph-name="Acircumflex" unicode="&#xc2;" horiz-adv-x="667" 
d="M164 342h186l-105 280zM372 779l-97 78l-97 -78h-34l112 174h38l112 -174h-34zM661 16h6v-16h-88q-101 0 -144 115l-79 211h-196l-72 -248q-18 -62 61 -62h9v-16h-157v16h15q23 0 35 16t20 46l158 544q7 24 -14 43t-47 19h-9v16h125q70 0 103 -89l204 -546
q9 -23 27.5 -36t42.5 -13z" />
    <glyph glyph-name="Atilde" unicode="&#xc3;" horiz-adv-x="667" 
d="M164 342h186l-105 280zM450 923q-8 -43 -26 -68t-41.5 -32.5t-50 -8t-54.5 2.5t-53 3.5t-47.5 -9.5t-35.5 -32q10 43 28 68.5t40 33.5t47 8t52 -3.5t52 -4.5t49 9t40 33zM661 16h6v-16h-88q-101 0 -144 115l-79 211h-196l-72 -248q-4 -20 -2 -32t14 -18.5t23 -9t26 -2.5
h9v-16h-157v16h15q23 0 35 16t20 46l158 544q7 24 -14 43t-47 19h-9v16h125q70 0 103 -89l204 -546q9 -23 27.5 -36t42.5 -13z" />
    <glyph glyph-name="Adieresis" unicode="&#xc4;" horiz-adv-x="667" 
d="M164 342h186l-105 280zM337 791v100h82v-100h-82zM159 791v100h82v-100h-82zM661 16h6v-16h-88q-101 0 -144 115l-79 211h-196l-72 -248q-4 -20 -2 -32t14 -18.5t23 -9t26 -2.5h9v-16h-157v16h15q23 0 35 16t20 46l158 544q7 24 -14 43t-47 19h-9v16h125q70 0 103 -89
l204 -546q9 -23 27.5 -36t42.5 -13z" />
    <glyph glyph-name="Aring" unicode="&#xc5;" horiz-adv-x="667" 
d="M164 342h186l-105 280zM356 796q0 37 -26.5 63.5t-63.5 26.5t-63.5 -26.5t-26.5 -63.5t26.5 -63.5t63.5 -26.5t63.5 26.5t26.5 63.5zM661 16h6v-16h-88q-101 0 -144 115l-79 211h-196l-72 -248q-4 -20 -2 -32t14 -18.5t23 -9t26 -2.5h9v-16h-157v16h15q23 0 35 16t20 46
l158 544q7 24 -14 43t-47 19h-9v16h37q-8 5 -14 12q-35 35 -35 84t35 84t84 35t84 -35t35 -84t-35 -84q-12 -12 -27 -20q42 -20 64 -81l204 -546q9 -23 27.5 -36t42.5 -13z" />
    <glyph glyph-name="AE" unicode="&#xc6;" horiz-adv-x="858" 
d="M264 684l-99 -342h157v280q0 25 -17 42.5t-41 19.5zM322 326h-161l-72 -248q-4 -20 -2 -32t14 -18.5t23 -9t26 -2.5h9v-16h-157v16h15q23 0 35 16t20 46l158 544q7 24 -14 43t-47 19h-9v16h596q20 0 25 -20l25 -109h-15l-25 44q-25 44 -46.5 56.5t-64.5 12.5h-132
q-25 0 -43 -18t-18 -44v-280h165q24 0 36 17t7 39l-8 37h16l53 -182h-16l-16 32q-21 41 -67 41h-170v-248q0 -26 18 -44t43 -18h157q44 0 65.5 12.5t46.5 56.5l25 44h15l-25 -109q-5 -20 -26 -20h-529v16h8q26 0 44 18t18 44v248z" />
    <glyph glyph-name="Ccedilla" unicode="&#xc7;" horiz-adv-x="668" 
d="M393 684q-93 0 -153 -85t-60 -242q0 -156 62.5 -243.5t155.5 -87.5q74 0 132.5 36.5t95.5 100.5l13 -7q-36 -71 -101.5 -113.5t-144.5 -42.5q-32 0 -62 4l-15 -22q13 -3 26 -11q26 -17 32.5 -42t-10.5 -53q-18 -27 -44 -33t-53 12q-29 18 -25 53l1 8l17 -2v-7
q-1 -24 17 -36q2 -1 5 -2q10 -3 22 3q14 7 26 26q23 35 7 53q-2 3 -5 5q-18 11 -38 -9l-5 -4l-13 8l36 56q-123 23 -198 113t-75 237q0 87 27.5 154t76.5 107.5t112 61t138 20.5q96 0 171 -33q10 -4 18.5 2t8.5 16v15h14v-208h-14q-23 93 -75.5 142.5t-122.5 49.5z" />
    <glyph glyph-name="Egrave" unicode="&#xc8;" horiz-adv-x="632" 
d="M410 779h-34l-154 125l57 78zM26 16h9q25 0 43 18t18 44v544q0 26 -18 44t-43 18h-9v16h504q20 0 25 -20l26 -109h-15l-25 44q-26 44 -47 56.5t-65 12.5h-131q-26 0 -44 -18t-18 -44v-280h165q25 0 37 17t7 39l-8 37h15l54 -182h-16l-17 32q-21 41 -66 41h-171v-248
q0 -26 18 -44t44 -18h157q44 0 65 12.5t47 56.5l25 44h15l-26 -109q-5 -20 -25 -20h-530v16z" />
    <glyph glyph-name="Eacute" unicode="&#xc9;" horiz-adv-x="632" 
d="M257 779h-35l131 203l57 -78zM26 0v16h9q25 0 43 18t18 44v544q0 26 -18 44t-43 18h-9v16h504q20 0 25 -20l26 -109h-15l-25 44q-26 44 -47 56.5t-65 12.5h-131q-26 0 -44 -18t-18 -44v-280h165q25 0 37 17t7 39l-8 37h15l54 -182h-16l-17 32q-21 41 -66 41h-171v-248
q0 -26 18 -44t44 -18h157q44 0 65 12.5t47 56.5l25 44h15l-26 -109q-5 -20 -25 -20h-530z" />
    <glyph glyph-name="Ecircumflex" unicode="&#xca;" horiz-adv-x="632" 
d="M448 779h-35l-97 78l-97 -78h-34l113 174h37zM26 0v16h9q25 0 43 18t18 44v544q0 26 -18 44t-43 18h-9v16h504q20 0 25 -20l26 -109h-15l-25 44q-26 44 -47 56.5t-65 12.5h-131q-26 0 -44 -18t-18 -44v-280h165q25 0 37 17t7 39l-8 37h15l54 -182h-16l-17 32
q-21 41 -66 41h-171v-248q0 -26 18 -44t44 -18h157q44 0 65 12.5t47 56.5l25 44h15l-26 -109q-5 -20 -25 -20h-530z" />
    <glyph glyph-name="Edieresis" unicode="&#xcb;" horiz-adv-x="632" 
d="M364 791v100h82v-100h-82zM186 791v100h82v-100h-82zM26 16h9q25 0 43 18t18 44v544q0 26 -18 44t-43 18h-9v16h504q20 0 25 -20l26 -109h-15l-25 44q-26 44 -47 56.5t-65 12.5h-131q-26 0 -44 -18t-18 -44v-280h165q25 0 37 17t7 39l-8 37h15l54 -182h-16l-17 32
q-21 41 -66 41h-171v-248q0 -26 18 -44t44 -18h157q44 0 65 12.5t47 56.5l25 44h15l-26 -109q-5 -20 -25 -20h-530v16z" />
    <glyph glyph-name="Igrave" unicode="&#xcc;" horiz-adv-x="335" 
d="M261 779h-34l-154 125l57 78zM27 0v16h9q25 0 43 18t18 44v544q0 26 -18 44t-43 18h-9v16h281v-16h-9q-26 0 -44 -18t-18 -44v-544q0 -26 18 -44t44 -18h9v-16h-281z" />
    <glyph glyph-name="Iacute" unicode="&#xcd;" horiz-adv-x="335" 
d="M108 779h-35l131 203l57 -78zM27 0v16h9q25 0 43 18t18 44v544q0 26 -18 44t-43 18h-9v16h281v-16h-9q-26 0 -44 -18t-18 -44v-544q0 -26 18 -44t44 -18h9v-16h-281z" />
    <glyph glyph-name="Icircumflex" unicode="&#xce;" horiz-adv-x="335" 
d="M299 779h-35l-97 78l-97 -78h-34l113 174h37zM27 0v16h9q25 0 43 18t18 44v544q0 26 -18 44t-43 18h-9v16h281v-16h-9q-26 0 -44 -18t-18 -44v-544q0 -26 18 -44t44 -18h9v-16h-281z" />
    <glyph glyph-name="Idieresis" unicode="&#xcf;" horiz-adv-x="335" 
d="M215 791v100h83v-100h-83zM37 791v100h82v-100h-82zM27 0v16h9q25 0 43 18t18 44v544q0 26 -18 44t-43 18h-9v16h281v-16h-9q-26 0 -44 -18t-18 -44v-544q0 -26 18 -44t44 -18h9v-16h-281z" />
    <glyph glyph-name="Eth" unicode="&#xd0;" horiz-adv-x="692" 
d="M315 0h-281v16h9q25 0 43 18t18 44v251h-70v42h70v251q0 26 -18 44t-43 18h-9v16h281q81 0 147.5 -30t107 -79.5t63 -112t23 -128.5t-21.5 -128.5t-63 -112t-107.5 -79.5t-148.5 -30zM244 622v-251h174v-42h-174v-251q0 -26 18 -44t44 -18h9q50 0 91 29t66 75.5
t38.5 106.5t13.5 123t-13.5 123t-38.5 106.5t-66 75.5t-91 29h-9q-26 0 -44 -18t-18 -44z" />
    <glyph glyph-name="Ntilde" unicode="&#xd1;" horiz-adv-x="682" 
d="M186 779q10 43 28 68.5t40.5 33.5t47.5 8t52 -3.5t52 -4.5t48.5 9t40.5 33q-8 -43 -26.5 -68t-41.5 -32.5t-49.5 -8t-54.5 2.5t-53.5 3.5t-47.5 -9.5t-36 -32zM27 0v16h9q25 0 43 18t18 44v544q0 26 -16.5 44t-41.5 18h-9v16h89q48 0 77.5 -27.5t65.5 -87.5l306 -505v542
q0 26 -18 44t-44 18h-9v16h157v-16h-9q-25 0 -43 -18t-18 -44v-544q0 -26 18 -44t43 -18h9v-16h-125q-32 0 -53.5 21t-49.5 68l-312 516v-527q0 -26 18 -44t43 -18h9v-16h-157z" />
    <glyph glyph-name="Ograve" unicode="&#xd2;" 
d="M744 350q0 -99 -47.5 -183t-129 -133t-177.5 -49t-177.5 49t-129 133t-47.5 183t47.5 183t129 133t177.5 49t177.5 -49t129 -133t47.5 -183zM484 779h-34l-154 125l57 78zM177 350q0 -95 28.5 -175.5t77.5 -127.5t107 -47t107 47t77.5 127.5t28.5 175.5t-28.5 175.5
t-77.5 127.5t-107 47t-107 -47t-77.5 -127.5t-28.5 -175.5z" />
    <glyph glyph-name="Oacute" unicode="&#xd3;" 
d="M744 350q0 -99 -47.5 -183t-129 -133t-177.5 -49t-177.5 49t-129 133t-47.5 183t47.5 183t129 133t177.5 49t177.5 -49t129 -133t47.5 -183zM330 779h-34l131 203l57 -78zM177 350q0 -95 28.5 -175.5t77.5 -127.5t107 -47t107 47t77.5 127.5t28.5 175.5t-28.5 175.5
t-77.5 127.5t-107 47t-107 -47t-77.5 -127.5t-28.5 -175.5z" />
    <glyph glyph-name="Ocircumflex" unicode="&#xd4;" 
d="M744 350q0 -99 -47.5 -183t-129 -133t-177.5 -49t-177.5 49t-129 133t-47.5 183t47.5 183t129 133t177.5 49t177.5 -49t129 -133t47.5 -183zM521 779h-34l-97 78l-97 -78h-34l112 174h38zM177 350q0 -95 28.5 -175.5t77.5 -127.5t107 -47t107 47t77.5 127.5t28.5 175.5
t-28.5 175.5t-77.5 127.5t-107 47t-107 -47t-77.5 -127.5t-28.5 -175.5z" />
    <glyph glyph-name="Otilde" unicode="&#xd5;" 
d="M744 350q0 -99 -47.5 -183t-129 -133t-177.5 -49t-177.5 49t-129 133t-47.5 183t47.5 183t129 133t177.5 49t177.5 -49t129 -133t47.5 -183zM544 923q-8 -43 -26 -68t-41.5 -32.5t-50 -8t-54.5 2.5t-53 3.5t-47.5 -9.5t-35.5 -32q10 43 27.5 68.5t40 33.5t47.5 8t52 -3.5
t52 -4.5t49 9t40 33zM177 350q0 -95 28.5 -175.5t77.5 -127.5t107 -47t107 47t77.5 127.5t28.5 175.5t-28.5 175.5t-77.5 127.5t-107 47t-107 -47t-77.5 -127.5t-28.5 -175.5z" />
    <glyph glyph-name="Odieresis" unicode="&#xd6;" 
d="M744 350q0 -99 -47.5 -183t-129 -133t-177.5 -49t-177.5 49t-129 133t-47.5 183t47.5 183t129 133t177.5 49t177.5 -49t129 -133t47.5 -183zM438 791v100h82v-100h-82zM260 791v100h82v-100h-82zM177 350q0 -95 28.5 -175.5t77.5 -127.5t107 -47t107 47t77.5 127.5
t28.5 175.5t-28.5 175.5t-77.5 127.5t-107 47t-107 -47t-77.5 -127.5t-28.5 -175.5z" />
    <glyph glyph-name="multiply" unicode="&#xd7;" horiz-adv-x="512" 
d="M460 478l-142 -142l142 -142l-62 -63l-142 143l-143 -143l-62 63l142 142l-142 142l62 63l143 -142l142 142z" />
    <glyph glyph-name="Oslash" unicode="&#xd8;" horiz-adv-x="794" 
d="M397 715q127 0 224 -83l59 59l58 -58l-61 -60q74 -99 74 -223q0 -99 -47.5 -183t-129 -133t-177.5 -49q-127 0 -225 83l-58 -59l-58 58l61 60q-74 99 -74 223q0 99 47.5 183t129 133t177.5 49zM561 572q-30 59 -72.5 93.5t-91.5 34.5q-58 0 -107 -47t-77.5 -127.5
t-28.5 -175.5q0 -72 18 -138zM592 488l-359 -360q30 -59 72.5 -93.5t91.5 -34.5q58 0 107 47t77.5 127.5t28.5 175.5q0 72 -18 138z" />
    <glyph glyph-name="Ugrave" unicode="&#xd9;" horiz-adv-x="717" 
d="M452 779h-35l-154 125l57 78zM227 232q0 -48 13.5 -87t35.5 -63t51 -39.5t60.5 -17t63.5 4t61 23.5t51 42.5t35 60.5t13 76v393q0 25 -18 43t-43 18h-9v17h157v-17h-9q-25 0 -43 -18t-18 -43v-393q0 -75 -36.5 -129.5t-92.5 -80t-125 -25.5q-62 0 -113 18.5t-90.5 54.5
t-61.5 96t-22 138v321q0 25 -18 43t-43 18h-9v17h281v-17h-9q-26 0 -44 -18t-18 -43v-393z" />
    <glyph glyph-name="Uacute" unicode="&#xda;" horiz-adv-x="717" 
d="M298 779h-35l132 203l57 -78zM227 232q0 -48 13.5 -87t35.5 -63t51 -39.5t60.5 -17t63.5 4t61 23.5t51 42.5t35 60.5t13 76v393q0 25 -18 43t-43 18h-9v17h157v-17h-9q-25 0 -43 -18t-18 -43v-393q0 -75 -36.5 -129.5t-92.5 -80t-125 -25.5q-62 0 -113 18.5t-90.5 54.5
t-61.5 96t-22 138v321q0 25 -18 43t-43 18h-9v17h281v-17h-9q-26 0 -44 -18t-18 -43v-393z" />
    <glyph glyph-name="Ucircumflex" unicode="&#xdb;" horiz-adv-x="717" 
d="M489 779h-35l-97 78l-97 -78h-34l113 174h37zM227 232q0 -48 13.5 -87t35.5 -63t51 -39.5t60.5 -17t63.5 4t61 23.5t51 42.5t35 60.5t13 76v393q0 25 -18 43t-43 18h-9v17h157v-17h-9q-25 0 -43 -18t-18 -43v-393q0 -75 -36.5 -129.5t-92.5 -80t-125 -25.5
q-62 0 -113 18.5t-90.5 54.5t-61.5 96t-22 138v321q0 25 -18 43t-43 18h-9v17h281v-17h-9q-26 0 -44 -18t-18 -43v-393z" />
    <glyph glyph-name="Udieresis" unicode="&#xdc;" horiz-adv-x="717" 
d="M405 791v100h83v-100h-83zM227 791v100h82v-100h-82zM227 232q0 -48 13.5 -87t35.5 -63t51 -39.5t60.5 -17t63.5 4t61 23.5t51 42.5t35 60.5t13 76v393q0 25 -18 43t-43 18h-9v17h157v-17h-9q-25 0 -43 -18t-18 -43v-393q0 -75 -36.5 -129.5t-92.5 -80t-125 -25.5
q-62 0 -113 18.5t-90.5 54.5t-61.5 96t-22 138v321q0 25 -18 43t-43 18h-9v17h281v-17h-9q-26 0 -44 -18t-18 -43v-393z" />
    <glyph glyph-name="Yacute" unicode="&#xdd;" horiz-adv-x="528" 
d="M204 779h-34l131 203l57 -78zM5 686h-3h-3v17h95q51 0 79.5 -24.5t53.5 -79.5l92 -205l103 231q16 38 12 49.5t-30 11.5h-15v17h140v-17h-15q-24 0 -44.5 -18t-31.5 -43l-111 -248v-297q0 -25 18 -43t44 -18h9v-16h-281v16h9q25 0 43 18t18 43v315l-112 243
q-23 48 -70 48z" />
    <glyph glyph-name="Thorn" unicode="&#xde;" horiz-adv-x="683" 
d="M236 573v-446h77q91 0 156.5 65.5t65.5 157.5t-65.5 157.5t-156.5 65.5h-77zM26 0v16h9q25 0 43 18t18 44v544q0 26 -18 44t-43 18h-9v16h281v-16h-9q-26 0 -44 -18t-18 -44v-20h180q103 0 170 -73.5t67 -178.5t-67 -178.5t-170 -73.5h-180v-20q0 -26 18 -44t44 -18h9
v-16h-281z" />
    <glyph glyph-name="germandbls" unicode="&#xdf;" horiz-adv-x="620" 
d="M179 470v-224.5v-224.5v-21h-115v473q0 227 224 227q54 0 104 -19.5t74 -59.5q30 -48 7 -108q-6 -16 -35 -64q-30 -49 -30 -63q0 -5 2 -9.5t5 -8.5t8.5 -8.5t9 -7.5t10.5 -7.5t10 -6.5t10.5 -6t8.5 -5q28 -16 47 -29.5t39 -33t30 -43t10 -51.5q0 -72 -57.5 -121
t-134.5 -49q-59 0 -108 27.5t-77 76.5l-10 18l96 52l11 -17q39 -61 86 -61q30 0 53.5 20t23.5 48v0q1 12 -4.5 23.5t-17 21t-19 15t-22.5 14.5q-4 2 -11 6q-26 16 -40 25.5t-35 27t-31 36.5t-10 41q0 21 8.5 41.5t29 51.5t23.5 36q28 49 10.5 78t-76.5 29q-50 0 -76 -27
q-31 -33 -31 -113z" />
    <glyph glyph-name="oe" unicode="&#x153;" horiz-adv-x="1140" 
d="M390 715q75 0 143 -31v16h504q21 0 26 -20l25 -109h-15l-25 44q-25 44 -46.5 56.5t-65.5 12.5h-131q-25 0 -43 -18t-18 -44v-267v-5v-5v-3h165q24 0 36 17t7 39l-8 37h16l53 -182h-16l-17 32q-20 41 -66 41h-170v-248q0 -26 18 -44t43 -18h157q44 0 65.5 12.5t46.5 56.5
l25 44h15l-26 -109q-4 -20 -25 -20h-530v16q-68 -31 -143 -31q-96 0 -177.5 49t-129 133t-47.5 183t47.5 183t129 133t177.5 49zM390 700q-58 0 -107 -47t-77.5 -127.5t-28.5 -175.5t28.5 -175.5t77.5 -127.5t107 -47t107 47t77.5 127.5t28.5 175.5t-28.5 175.5t-77.5 127.5
t-107 47z" />
    <glyph glyph-name="circumflex" unicode="&#x2c6;" horiz-adv-x="434" 
d="M186 700h61l147 -192h-99l-78 148l-78 -148h-100z" />
    <glyph glyph-name="endash" unicode="&#x2013;" horiz-adv-x="376" 
d="M37 259v88h302v-88h-302z" />
    <glyph glyph-name="emdash" unicode="&#x2014;" horiz-adv-x="840" 
d="M37 259v88h765v-88h-765z" />
    <glyph glyph-name="quoteleft" unicode="&#x2018;" horiz-adv-x="170" 
d="M44 609v42q0 24 17 36t41 13v-9q-12 -4 -14.5 -11t-2.5 -29v-5h41v-100h-82v63z" />
    <glyph glyph-name="quoteright" unicode="&#x2019;" horiz-adv-x="170" 
d="M125 637v-42q0 -24 -17 -36t-41 -13v9q12 4 14.5 11t2.5 29v5h-41v100h82v-63z" />
    <glyph glyph-name="quotesinglbase" unicode="&#x201a;" horiz-adv-x="161" 
d="M121 37v-42q0 -24 -17 -36t-41 -13v9q12 4 14.5 11t2.5 29v5h-41v100h82v-63z" />
    <glyph glyph-name="quotedblleft" unicode="&#x201c;" horiz-adv-x="303" 
d="M177 609v42q0 24 17.5 36t40.5 13l1 -9q-13 -4 -15.5 -11t-2.5 -29v-5h41v-100h-82v63zM44 651q0 24 17 36t41 13v-9q-12 -4 -14.5 -11t-2.5 -29v-5h41v-100h-82v63v42z" />
    <glyph glyph-name="quotedblright" unicode="&#x201d;" horiz-adv-x="303" 
d="M125 637v-42q0 -24 -17 -36t-41 -13v9q12 4 14.5 11t2.5 29v5h-41v100h82v-63zM258 595q0 -24 -17 -36t-41 -13v9q13 4 15.5 11t2.5 29v5h-42v100h82v-63v-42z" />
    <glyph glyph-name="quotedblbase" unicode="&#x201e;" horiz-adv-x="294" 
d="M121 -5q0 -24 -17 -36t-41 -13v9q12 4 14.5 11t2.5 29v5h-41v100h82v-63v-42zM254 -5q0 -24 -17 -36t-41 -13v9q13 4 15.5 11t2.5 29v5h-42v100h82v-63v-42z" />
    <glyph glyph-name="dagger" unicode="&#x2020;" horiz-adv-x="542" 
d="M227 446h-179v88h179v166h88v-166h179v-88h-179v-590h-88v590z" />
    <glyph glyph-name="daggerdbl" unicode="&#x2021;" horiz-adv-x="562" 
d="M237 446h-179v88h179v166h88v-166h179v-88h-179v-346h179v-88h-179v-156h-88v156h-179v88h179v346z" />
    <glyph glyph-name="bullet" unicode="&#x2022;" horiz-adv-x="288" 
d="M46 278q0 41 29 69q28 29 69 29q40 0 69 -29q29 -28 29 -69q0 -40 -29 -69t-69 -29q-41 0 -69 29q-29 29 -29 69z" />
    <glyph glyph-name="ellipsis" unicode="&#x2026;" horiz-adv-x="554" 
d="M318 0h-82v100h82v-50v-50zM515 0h-82v100h82v-50v-50zM121 0h-82v100h82v-50v-50z" />
    <glyph glyph-name="guilsinglleft" unicode="&#x2039;" horiz-adv-x="311" 
d="M259 430l-105 -215l104 -215h-80l-129 215l129 215h81z" />
    <glyph glyph-name="guilsinglright" unicode="&#x203a;" horiz-adv-x="311" 
d="M156 215l-105 215h81l129 -215l-129 -215h-80z" />
    <glyph glyph-name="Euro" unicode="&#x20ac;" horiz-adv-x="640" 
d="M267 419h262l-34 -61h-233v-15h245l-34 -61h-210q3 -37 10.5 -74t23 -76.5t43.5 -66.5t65 -32t75 20t68 61l28 -37q-68 -81 -156 -81q-42 0 -79 18t-63 47t-46.5 67t-32 76.5t-16.5 77.5h-136l34 61h97v15h-109l34 61h80q5 39 16.5 78t32 77t47 67t63.5 46.5t79 17.5
q90 0 162 -88l-32 -61q-12 24 -20.5 39t-22 32.5t-32 28t-40.5 13.5q-32 4 -59.5 -13t-45.5 -44.5t-32 -64.5t-21 -68t-11 -60z" />
    <glyph glyph-name="trademark" unicode="&#x2122;" horiz-adv-x="689" 
d="M125 393h4q11 0 19 8t8 19v245q0 11 -8 19.5t-19 8.5h-20q-20 0 -30 -5.5t-20 -25.5l-10 -20h-7l10 49q2 9 12 9h218h36q41 0 65 -51l84 -184l85 235h87v-7h-4q-11 0 -19.5 -8.5t-8.5 -19.5v-245q0 -11 8.5 -19t19.5 -8h4v-8h-126v8h4q11 0 19 8t8 19v238l-96 -265h-8
l-114 252l-5 10v-235q0 -11 8 -19t19 -8h4v-8h-70v8h4q11 0 19 8t8 19v245v5q-9 14 -18.5 18.5t-27.5 4.5h-20q-11 0 -19.5 -8.5t-8.5 -19.5v-245q0 -11 8.5 -19t19.5 -8h4v-8h-126v8z" />
    <glyph glyph-name="W.alt1" unicode="&#xf000;" horiz-adv-x="1152" 
d="M310 700q47 0 83.5 -30.5t56.5 -84.5l190 -507l71 247l-116 310q-8 23 -27 36t-42 13h-6v16h88q101 0 143 -115l191 -507l103 355q15 47 13 92.5t-10.5 73.5t-17.5 57t-9 44h117q-28 -95 -88 -303.5t-92 -318.5q-7 -24 13.5 -43t47.5 -19h9v-16h-125q-70 0 -104 89
l-78 211l-65 -222q-7 -24 14 -43t48 -19h9v-16h-126q-70 0 -103 89q-133 357 -200 535q-13 36 -43.5 49t-63.5 1q-17 -5 -29.5 -14t-18.5 -22t-10 -25.5t-1.5 -31t4.5 -33t11 -38t15 -39t19 -42t20.5 -41t21.5 -43.5q18 -34 26 -50q-104 30 -162 82t-63.5 105.5t16 102.5
t71 81t107.5 34h92z" />
    <glyph glyph-name="V.alt1" unicode="&#xf001;" horiz-adv-x="851" 
d="M218 700h45h45q47 0 84.5 -30.5t57.5 -84.5l190 -507l103 355q15 47 13 92.5t-10 73.5t-17.5 57t-9.5 44h117q-27 -95 -87.5 -303.5t-92.5 -318.5q-7 -24 14 -43t48 -19h9v-16h-126q-70 0 -103 89q-13 35 -85 228t-111 296q-15 40 -43 58t-68 3q-17 -5 -29.5 -14
t-18.5 -22t-10 -25.5t-1.5 -31t4.5 -33t11 -38t15 -39t19 -42t20.5 -41t21.5 -43.5q18 -34 26 -50q-104 30 -162 82t-63.5 105.5t16 102.5t71 81t107.5 34z" />
    <glyph glyph-name="X.alt1" unicode="&#xf002;" horiz-adv-x="574" 
d="M6 684v16h88q50 0 83 -29.5t61 -85.5l88 -180l103 217q17 38 12.5 50t-30.5 12h-15v16h140v-16h-15q-24 0 -44 -18t-32 -44l-111 -234l158 -323q23 -49 70 -49h5v-16h-88q-50 0 -83 29.5t-60 85.5l-89 181l-102 -218q-17 -38 -13 -50t31 -12h15v-16h-141v16h15
q24 0 44 18t32 44l111 235l-157 322q-24 49 -70 49h-6z" />
    <glyph glyph-name="X.alt2" unicode="&#xf003;" horiz-adv-x="789" 
d="M226 700h43.5h44.5q50 0 83 -29.5t60 -85.5l89 -181l49 106q21 44 23.5 77t-6.5 47.5t-19 32.5t-9 33h117l-147 -312l157 -323q24 -49 70 -49h6v-16h-89q-49 0 -82 29.5t-61 85.5l-88 181l-103 -218q-17 -38 -12.5 -50t30.5 -12h15v-16h-141v16h16q23 0 43.5 18t32.5 44
l110 235l-152 313q-17 35 -49.5 47.5t-65.5 0.5q-17 -5 -29.5 -14t-18.5 -22t-10 -25.5t-1.5 -31t4.5 -33t11 -38t15 -39t19 -42t20.5 -41t21.5 -43.5q18 -34 26 -50q-105 31 -163.5 83.5t-63 106.5t18.5 103.5t74.5 80.5t110.5 31z" />
    <glyph glyph-name="A.alt1" unicode="&#xf004;" horiz-adv-x="865" 
d="M363 342h186l-105 280zM428 622q8 27 -1 44t-27.5 21.5t-38 3t-33.5 -7.5q-56 -26 -96.5 -79.5t-58 -118.5t-11.5 -139.5t38 -139.5q-169 50 -177 165q-6 97 95 201q94 98 213 136q140 44 214 -31q26 -26 41 -66l204 -546q9 -23 27.5 -36t42.5 -13h6v-16h-89
q-100 0 -143 115l-79 211h-197l-71 -248q-4 -20 -2 -32t14 -18.5t23 -9t26 -2.5h9v-16h-157v16h15q23 0 35 16t20 46z" />
    <glyph glyph-name="B.alt1" unicode="&#xf005;" horiz-adv-x="884" 
d="M556 684h-9q-25 0 -43 -18t-18 -44v-248h70q41 0 72 17t46.5 44.5t22.5 60.5t-1.5 66t-25 60.5t-46.5 44.5t-68 17zM276 0v16h8q26 0 44 18t18 44v544q0 26 -18 44t-44 18h-8v16h325q58 0 101 -21.5t64.5 -55t26 -74t-9 -77t-47 -66t-81.5 -40.5q86 -4 136.5 -60
t53.5 -144q3 -82 -30 -144.5t-94 -101t-142.5 -56.5t-180.5 -16q-175 5 -286 112q-88 85 -91 189q-3 107 89 168q39 25 90 38q-31 -39 -45.5 -91t-11.5 -104.5t24 -104t54.5 -91.5t85 -64.5t111.5 -24.5q77 0 137 23t98 64t57.5 94.5t19.5 115.5q0 45 -15 87t-48.5 72.5
t-78.5 30.5h-102v-280q0 -26 18 -44t43 -18h9v-16h-280z" />
    <glyph glyph-name="D.alt1" unicode="&#xf006;" horiz-adv-x="972" 
d="M579 684h-9q-25 0 -43 -18t-18 -44v-544q0 -26 18 -44t43 -18h9v-16h-281v16h9q25 0 43 18t18 44v544q0 26 -18 44t-43 18h-9v16h281q73 0 137.5 -27t112 -75.5t75 -121.5t27.5 -160q0 -103 -39 -189.5t-106 -144t-158 -88.5t-194 -29q-174 5 -298 110q-97 82 -112 181
q-16 103 72 161q45 30 112 42q-40 -80 -44.5 -163.5t24 -150t93.5 -109.5t156 -44q75 -2 135 20.5t100.5 62t68 95t39.5 117.5t12 131q0 161 -61.5 263.5t-151.5 102.5z" />
    <glyph glyph-name="D.alt2" unicode="&#xf007;" horiz-adv-x="971" 
d="M578 16q90 0 151.5 102.5t61.5 263.5q0 69 -12 131t-39.5 117.5t-68 95t-100.5 62t-135 20.5q-91 -1 -156 -44t-93.5 -109.5t-24 -150t44.5 -163.5q-146 27 -178 126q-29 87 40 186q73 105 209 153q74 27 155 29q103 2 194 -29t158 -88.5t106 -144t39 -189.5
q0 -87 -27.5 -160t-75 -121.5t-112 -75.5t-137.5 -27h-281v16h9q25 0 43 18t18 44v544q0 26 -18 44t-43 18h-9v16h281v-16h-9q-25 0 -43 -18t-18 -44v-544q0 -26 18 -44t43 -18h9z" />
    <glyph glyph-name="R.alt1" unicode="&#xf01d;" horiz-adv-x="718" 
d="M349 684h-51q-26 0 -44 -18t-18 -44v-280h113q37 0 65 25.5t40 63.5t12 82t-12 82t-40 63.5t-65 25.5zM26 16h9q25 0 43 18t18 44v544q0 26 -18 44t-43 18h-9v16h361q53 0 98.5 -23.5t72.5 -67.5q26 -44 26 -96t-26 -97q-41 -67 -135 -82q26 0 54 -23.5t46.5 -49
t53.5 -79.5q34 -52 53.5 -79.5t60.5 -75t75 -71t88 -47.5t109 -24.5t128.5 16.5t155.5 59l8 -11q-85 -62 -211.5 -92.5t-214.5 -12.5q-73 16 -134 51t-102 78.5t-76 92.5t-64 94.5t-58.5 83t-66.5 60t-80 22.5h-12v-248q0 -26 18 -44t44 -18h9v-16h-281v16z" />
    <glyph glyph-name="R.alt2" unicode="&#xf01e;" horiz-adv-x="648" 
d="M349 684h-51q-26 0 -44 -18t-18 -44v-280h113q37 0 65 25.5t40 63.5t12 82t-12 82t-40 63.5t-65 25.5zM26 0v16h9q25 0 43 18t18 44v544q0 26 -18 44t-43 18h-9v16h361q53 0 98.5 -23.5t72.5 -67.5q26 -44 26 -96t-26 -97q-42 -69 -140 -83q-4 -1 -13 -3
q35 -10 66.5 -37.5t50.5 -73.5l48 -118q110 -267 392 -221v-16q-398 -63 -521 227l-44 106q-24 55 -55.5 92t-65.5 37h-40v-248q0 -26 18 -44t44 -18h9v-16h-281z" />
    <glyph glyph-name="K.alt1" unicode="&#xf01f;" horiz-adv-x="630" 
d="M484 219l57 -102q16 -30 31.5 -53t41.5 -53t54 -51t68.5 -40t86 -25.5t105.5 -2t128 23.5l6 -16q-82 -26 -155.5 -36t-130 -6t-106.5 20.5t-86.5 39t-69.5 54t-54.5 61t-42.5 64.5l-58 100q-15 25 -18.5 31t-16.5 26.5t-19.5 27.5t-18 19t-22 16.5t-22.5 4.5l-6 -8v-236
q0 -26 18 -44t44 -18h9v-16h-281v16h9q25 0 43 18t18 44v544q0 26 -18 44t-43 18h-9v16h281v-16h-9q-26 0 -44 -18t-18 -44v-278l241 317q6 7 2 15t-13 8h-26v16h125v-16h-13q-35 0 -60 -33l-232 -306q74 10 128 -20.5t96 -105.5z" />
    <glyph glyph-name="X.alt3" unicode="&#xf020;" horiz-adv-x="543" 
d="M196 621l104 -217l50 106q21 44 23.5 77t-6.5 47.5t-19 32.5t-10 33h118l-147 -312l157 -323q24 -49 70 -49h6v-16h-89q-49 0 -82.5 29.5t-60.5 85.5q-17 34 -47.5 97t-40.5 84l-103 -218q-17 -38 -12.5 -50t30.5 -12h15v-16h-141v16h16q23 0 43.5 18t32.5 44l110 235
l-144 299q-53 109 -146.5 166.5t-201.5 54.5t-206 -64l-9 10q72 52 152.5 73.5t144 18.5t126.5 -21q92 -26 160 -87.5t107 -141.5z" />
    <glyph glyph-name="X.alt4" unicode="&#xf021;" horiz-adv-x="550" 
d="M6 684v16h88q50 0 83 -29.5t61 -85.5l88 -181l49 106q21 44 23.5 77t-6 47.5t-18.5 32.5t-10 33h117l-147 -312l137 -282q40 -81 103 -136t137 -77t157.5 -12.5t163.5 51.5l9 -10q-65 -49 -145.5 -71t-148 -19.5t-129.5 19.5q-89 25 -164 100t-118 164l-89 181l-102 -218
q-17 -38 -13 -50t31 -12h15v-16h-141v16h15q24 0 44 18t32 44l111 235l-157 322q-24 49 -70 49h-6z" />
    <glyph glyph-name="X.alt5" unicode="&#xf022;" horiz-adv-x="524" 
d="M196 621l104 -217l50 106q21 44 23.5 77t-6.5 47.5t-19 32.5t-10 33h118l-147 -312l137 -282q40 -81 103 -136t137 -77t157 -12.5t164 51.5l9 -10q-66 -49 -146.5 -71t-148 -19.5t-129.5 19.5q-88 25 -163.5 100t-118.5 164l-88 181l-103 -218q-17 -38 -12.5 -50
t30.5 -12h15v-16h-141v16h16q23 0 43.5 18t32.5 44l110 235l-144 299q-53 109 -147 166t-202 54t-205 -63l-9 10q67 48 147 70t147.5 20t128.5 -19q92 -26 160 -87.5t107 -141.5z" />
    <glyph glyph-name="N.alt1" unicode="&#xf023;" horiz-adv-x="678" 
d="M233 629l334 -548v541q0 26 -18 44t-44 18h-9v16h157v-16h-9q-25 0 -43 -18t-18 -44v-565q28 -40 51 -67q58 -65 142 -92.5t170.5 -17t165.5 51.5l9 -10q-66 -49 -146 -71t-148 -19.5t-129 19.5q-77 22 -132 68.5t-105 115.5l-348 570v-527q0 -26 18 -44t43 -18h9v-16
h-157v16h9q25 0 43 18t18 44v544q0 26 -16.5 44t-41.5 18h-9v16h89q38 0 64.5 -18t50.5 -53z" />
    <glyph glyph-name="N.alt2" unicode="&#xf024;" horiz-adv-x="678" 
d="M261 585l303 -501l2 -3v541q0 26 -18 44t-43 18h-9v16h157v-16h-9q-25 0 -43 -18t-18 -44v-565q28 -40 51 -67q58 -65 142 -92.5t170.5 -17t165.5 51.5l8 -10q-65 -49 -145.5 -71t-148 -19.5t-129.5 19.5q-76 22 -131.5 68.5t-104.5 115.5q-13 15 -34 49q-1 2 -3 5
l-312 516v-527q0 -26 18 -44t44 -18h9v-16h-157v16h9q25 0 43 18t18 44v551q-35 52 -62 82q-58 66 -141 95.5t-171 19t-165 -56.5l-9 10q65 49 145.5 71t148.5 19.5t129 -19.5q47 -13 87 -36.5t73 -57t55 -62t50 -70.5q3 -3 5 -7v0q8 -12 20 -32z" />
    <glyph glyph-name="M.alt1" unicode="&#xf025;" horiz-adv-x="847" 
d="M24 0v16h9q26 0 44 18t18 44v563q-22 41 -50 74q-90 102 -227.5 118t-268.5 -64l-9 10q121 90 280 91q157 1 260 -69t169 -216l186 -407l190 522h194v-16h-9q-25 0 -43 -18t-18 -44v-544q0 -26 18 -44t43 -18h9v-16h-281v16h9q26 0 44 18t18 44v530l-215 -592h-17
l-218 480l-48 106v-524q0 -26 18 -44t43 -18h9v-16h-157z" />
    <glyph glyph-name="M.alt2" unicode="&#xf026;" horiz-adv-x="846" 
d="M95 641q-22 41 -50 74q-58 66 -146 95.5t-181 18.5t-169 -60l-9 10q121 90 280 91q79 1 145.5 -20t119.5 -62.5t95.5 -96t81.5 -129.5l199 -377l164 515h194v-16h-9q-25 0 -43 -18t-18 -44v-544q0 -26 18 -44t43 -18h9v-16h-210v608l-139 -444l27 -58q61 -131 159 -211
t219.5 -90.5t252.5 74.5l9 -10q-93 -75 -202.5 -96t-209.5 9.5t-189 104.5t-144 181l-281 534v-524q0 -26 18 -44t43 -18h9v-16h-157v16h9q26 0 44 18t18 44v563z" />
    <glyph glyph-name="H.alt1" unicode="&#xf042;" horiz-adv-x="815" 
d="M26 0v16h9q25 0 43 18t18 44v544q0 26 -18 44t-43 18h-9v16h281v-16h-9q-26 0 -44 -18t-18 -44v-280h341v140.5v139.5q0 26 -18 44t-43 18h-9v16h281v-16h-9q-26 0 -44 -18t-18 -44v-256q0 -88 5 -154.5t16.5 -126.5t32 -99t51.5 -68.5t74 -39.5t100.5 -6.5t131 25
t164.5 59.5l95 -143q-74 -16 -149 -21.5t-155.5 1.5t-152 28t-136.5 62.5t-112 100t-75.5 146.5t-29.5 196h-341v-248q0 -26 18 -44t44 -18h9v-16h-281z" />
    <glyph glyph-name="M.alt3" unicode="&#xf044;" horiz-adv-x="848" 
d="M26 16h9q25 0 43 18t18 44v544q0 23 -19.5 42.5t-41.5 19.5h-9v16h82q51 0 84.5 -30t58.5 -85l186 -407l190 522h194v-16h-9q-25 0 -43.5 -18t-18.5 -44v-256q1 -88 5.5 -154.5t16.5 -126.5t32 -99t51 -68.5t74 -39.5t101 -6.5t131 25t165 59.5l94 -143
q-75 -16 -150.5 -21.5t-156 1.5t-152.5 28.5t-137 64t-112 102t-74.5 148.5t-27.5 199v273l-214 -592h-18l-265 586v-524q0 -26 18 -44t43 -18h9v-16h-157v16z" />
    <glyph glyph-name="E.alt1" unicode="&#xf045;" horiz-adv-x="618" 
d="M236 0h-210v16h9q25 0 43 18t18 44v544q0 26 -18 44t-43 18h-9v16h276.5h227.5q20 0 25 -20l26 -109h-15l-25 44q-26 44 -47 56.5t-65 12.5h-131q-26 0 -44 -18t-18 -44v-280h165q25 0 37 17t7 39l-8 37h15l54 -182h-16l-17 32q-21 41 -66 41h-171v-302q77 16 141.5 18
t109.5 -8t93.5 -26.5t89.5 -33.5t100.5 -32.5t123.5 -21.5q42 -4 72.5 -4.5t70 4.5t74.5 22t66 46l9 -8q-31 -38 -66.5 -65t-68 -40t-66.5 -20.5t-62.5 -7t-55.5 1.5q-67 4 -135 23.5t-123.5 43t-112.5 46t-123.5 34t-136.5 4.5z" />
    </font>
</defs>
</svg>
